<svg width="58" height="41" viewBox="0 0 58 41" fill="none" xmlns="http://www.w3.org/2000/svg">
<path d="M5.016 25.836H10.536V28.5H1.656V11.748H5.016V25.836ZM18.5756 28.716C17.2956 28.716 16.1436 28.436 15.1196 27.876C14.0956 27.3 13.2876 26.492 12.6956 25.452C12.1196 24.412 11.8316 23.212 11.8316 21.852C11.8316 20.492 12.1276 19.292 12.7196 18.252C13.3276 17.212 14.1516 16.412 15.1916 15.852C16.2316 15.276 17.3916 14.988 18.6716 14.988C19.9516 14.988 21.1116 15.276 22.1516 15.852C23.1916 16.412 24.0076 17.212 24.5996 18.252C25.2076 19.292 25.5116 20.492 25.5116 21.852C25.5116 23.212 25.1996 24.412 24.5756 25.452C23.9676 26.492 23.1356 27.3 22.0796 27.876C21.0396 28.436 19.8716 28.716 18.5756 28.716ZM18.5756 25.788C19.1836 25.788 19.7516 25.644 20.2796 25.356C20.8236 25.052 21.2556 24.604 21.5756 24.012C21.8956 23.42 22.0556 22.7 22.0556 21.852C22.0556 20.588 21.7196 19.62 21.0476 18.948C20.3916 18.26 19.5836 17.916 18.6236 17.916C17.6636 17.916 16.8556 18.26 16.1996 18.948C15.5596 19.62 15.2396 20.588 15.2396 21.852C15.2396 23.116 15.5516 24.092 16.1756 24.78C16.8156 25.452 17.6156 25.788 18.5756 25.788ZM33.1843 14.988C34.1763 14.988 35.0483 15.188 35.8003 15.588C36.5523 15.972 37.1443 16.476 37.5763 17.1V15.204H40.9603V28.596C40.9603 29.828 40.7123 30.924 40.2163 31.884C39.7203 32.86 38.9763 33.628 37.9843 34.188C36.9923 34.764 35.7923 35.052 34.3843 35.052C32.4963 35.052 30.9443 34.612 29.7283 33.732C28.5283 32.852 27.8483 31.652 27.6883 30.132H31.0243C31.2003 30.74 31.5763 31.22 32.1523 31.572C32.7443 31.94 33.4563 32.124 34.2883 32.124C35.2643 32.124 36.0563 31.828 36.6643 31.236C37.2723 30.66 37.5763 29.78 37.5763 28.596V26.532C37.1443 27.156 36.5443 27.676 35.7763 28.092C35.0243 28.508 34.1603 28.716 33.1843 28.716C32.0643 28.716 31.0403 28.428 30.1123 27.852C29.1843 27.276 28.4483 26.468 27.9043 25.428C27.3763 24.372 27.1123 23.164 27.1123 21.804C27.1123 20.46 27.3763 19.268 27.9043 18.228C28.4483 17.188 29.1763 16.388 30.0883 15.828C31.0163 15.268 32.0483 14.988 33.1843 14.988ZM37.5763 21.852C37.5763 21.036 37.4163 20.34 37.0963 19.764C36.7763 19.172 36.3443 18.724 35.8003 18.42C35.2563 18.1 34.6723 17.94 34.0483 17.94C33.4243 17.94 32.8483 18.092 32.3203 18.396C31.7923 18.7 31.3603 19.148 31.0243 19.74C30.7043 20.316 30.5443 21.004 30.5443 21.804C30.5443 22.604 30.7043 23.308 31.0243 23.916C31.3603 24.508 31.7923 24.964 32.3203 25.284C32.8643 25.604 33.4403 25.764 34.0483 25.764C34.6723 25.764 35.2563 25.612 35.8003 25.308C36.3443 24.988 36.7763 24.54 37.0963 23.964C37.4163 23.372 37.5763 22.668 37.5763 21.852ZM50.1459 28.716C48.8659 28.716 47.7139 28.436 46.6899 27.876C45.6659 27.3 44.8579 26.492 44.2659 25.452C43.6899 24.412 43.4019 23.212 43.4019 21.852C43.4019 20.492 43.6979 19.292 44.2899 18.252C44.8979 17.212 45.7219 16.412 46.7619 15.852C47.8019 15.276 48.9619 14.988 50.2419 14.988C51.5219 14.988 52.6819 15.276 53.7219 15.852C54.7619 16.412 55.5779 17.212 56.1699 18.252C56.7779 19.292 57.0819 20.492 57.0819 21.852C57.0819 23.212 56.7699 24.412 56.1459 25.452C55.5379 26.492 54.7059 27.3 53.6499 27.876C52.6099 28.436 51.4419 28.716 50.1459 28.716ZM50.1459 25.788C50.7539 25.788 51.3219 25.644 51.8499 25.356C52.3939 25.052 52.8259 24.604 53.1459 24.012C53.4659 23.42 53.6259 22.7 53.6259 21.852C53.6259 20.588 53.2899 19.62 52.6179 18.948C51.9619 18.26 51.1539 17.916 50.1939 17.916C49.2339 17.916 48.4259 18.26 47.7699 18.948C47.1299 19.62 46.8099 20.588 46.8099 21.852C46.8099 23.116 47.1219 24.092 47.7459 24.78C48.3859 25.452 49.1859 25.788 50.1459 25.788Z" fill="white"/>
</svg>
