<svg width="40" height="48" viewBox="0 0 40 48" fill="none" xmlns="http://www.w3.org/2000/svg">
<path d="M11.5186 12.5992C11.5186 12.4103 11.4441 12.229 11.3116 12.0954C11.1791 11.9618 10.9992 11.8867 10.8118 11.8867H8.69122C8.30088 11.8867 7.98438 12.2058 7.98438 12.5992V16.1617C7.98438 16.5552 8.30088 16.8742 8.69122 16.8742C9.08156 16.8742 9.39807 16.5552 9.39807 16.1617V13.3117H10.8118C10.9992 13.3117 11.1791 13.2367 11.3116 13.1031C11.4441 12.9695 11.5186 12.7882 11.5186 12.5992Z" fill="#7F3E41"/>
<path d="M39.7796 25.3186C39.7796 25.3065 39.7796 25.2951 39.7755 25.2836C39.7556 25.1876 39.7159 25.0972 39.6594 25.0174C39.6543 25.0104 39.6543 25.0018 39.6496 24.9945L34.8443 18.5721V11.1742C34.8443 10.6074 34.6209 10.0634 34.2233 9.6627C33.8257 9.262 33.2861 9.03672 32.7238 9.03672H27.7109L22.8605 2.55297C22.1255 1.73363 21.0952 1.24596 20.0006 1.19922C18.8949 1.2482 17.8561 1.74632 17.1209 2.58L12.2903 9.03672H7.2774C6.71508 9.03672 6.17545 9.26192 5.77792 9.6627C5.38039 10.0635 5.1569 10.6074 5.1569 11.1742V18.5721L0.350353 24.9967C0.345304 25.0037 0.345304 25.0123 0.340571 25.0196C0.284086 25.0994 0.244641 25.1901 0.224446 25.2858C0.222237 25.2976 0.220975 25.309 0.220344 25.3208C0.214032 25.3548 0.210246 25.3895 0.208984 25.4242V44.6617C0.211824 45.282 0.48194 45.8704 0.948967 46.2741C1.33205 46.61 1.82182 46.7964 2.32954 46.7992H37.6718C38.1792 46.7964 38.6687 46.6103 39.0514 46.2747C39.5191 45.8711 39.7895 45.2822 39.7923 44.6617V25.4242C39.7908 25.3889 39.7862 25.3536 39.7796 25.3186ZM34.8443 20.939L37.9494 25.0887L34.8443 26.2477V20.939ZM18.229 3.46358C18.6966 2.97342 19.3275 2.67474 20.0002 2.62413C20.6626 2.67248 21.2848 2.96193 21.7509 3.43842L25.9377 9.03664H14.0627L18.229 3.46358ZM6.57046 18.8104V11.174C6.57046 10.7805 6.88697 10.4615 7.27731 10.4615H32.7238C32.9112 10.4615 33.0911 10.5365 33.2236 10.6701C33.3561 10.8037 33.4306 10.985 33.4306 11.174V26.7773L24.2788 30.1973L24.2504 30.2081C24.2087 30.1547 24.162 30.107 24.1169 30.0558C24.0541 29.9845 23.9903 29.919 23.9219 29.8547C23.8266 29.7647 23.7259 29.6808 23.6205 29.6032C23.5795 29.5732 23.5407 29.5427 23.4981 29.5147C23.3577 29.4225 23.2106 29.3417 23.0572 29.2733C23.0197 29.2561 22.9831 29.2412 22.9449 29.2256C22.7802 29.1575 22.6098 29.1041 22.4359 29.0659C22.4085 29.0602 22.3807 29.0567 22.3532 29.0516C21.5372 28.8865 20.6896 29.058 20.0001 29.5275C19.3113 29.0561 18.4637 28.8824 17.647 29.0459C17.6196 29.051 17.5918 29.0545 17.5644 29.0602C17.3905 29.0984 17.2201 29.1518 17.0554 29.2199C17.0172 29.2355 16.9796 29.2504 16.943 29.2676C16.7897 29.3357 16.6423 29.4164 16.5019 29.509C16.4596 29.5367 16.4205 29.5675 16.3794 29.5974C16.274 29.675 16.1737 29.759 16.0784 29.849C16.0077 29.9133 15.9462 29.9807 15.8834 30.0501C15.8383 30.1013 15.7916 30.149 15.7499 30.2024L15.7215 30.1916L6.56968 26.7773L6.57046 18.8104ZM23.5348 32.1924C23.5316 32.2745 23.5225 32.3562 23.5073 32.4367C23.3464 33.1043 22.9882 33.7068 22.4802 34.1645C21.737 34.8872 20.9033 35.5088 20.0005 36.0135C19.0993 35.5091 18.2678 34.8875 17.5266 34.1655C17.0182 33.7078 16.6604 33.1053 16.5004 32.4377C16.4821 32.3569 16.4711 32.2748 16.4663 32.1924C16.4688 31.9135 16.5373 31.639 16.6664 31.3921C16.8125 31.1024 17.034 30.8578 17.3067 30.6841C17.3186 30.6761 17.3313 30.6704 17.3433 30.6641C17.455 30.5982 17.5736 30.5451 17.697 30.5053C17.7295 30.4945 17.7614 30.484 17.7945 30.4748C18.094 30.3918 18.4105 30.3918 18.7096 30.4758C19.0091 30.5594 19.2804 30.7235 19.4944 30.9506C19.7765 31.2248 20.2233 31.2248 20.5051 30.9506C20.7191 30.7242 20.9895 30.5604 21.2884 30.4767C21.5869 30.3927 21.9027 30.3921 22.2016 30.4745C22.2347 30.4837 22.2666 30.4945 22.2997 30.505C22.4228 30.5448 22.5418 30.5982 22.6535 30.6641C22.6655 30.6704 22.6781 30.6761 22.6901 30.6841C22.9627 30.8578 23.1842 31.1024 23.3307 31.3921C23.461 31.6387 23.531 31.9131 23.5348 32.1924ZM5.15677 20.9349V26.2436L2.05166 25.0881L5.15677 20.9349ZM1.62255 44.7121V44.6608V26.4469L15.1334 31.492V31.499C15.1242 31.5438 15.1179 31.5887 15.11 31.6345C15.0741 31.8183 15.0551 32.005 15.0529 32.1924C15.0905 33.0554 15.4117 33.8807 15.9662 34.5395L1.62255 44.7121ZM3.14861 45.3733L16.9454 35.5873C17.7794 36.3214 18.6993 36.9509 19.6844 37.4611C19.7415 37.4824 19.8012 37.4967 19.8618 37.5031C19.9533 37.5215 20.0473 37.5215 20.1388 37.5031C20.1994 37.4967 20.2591 37.4824 20.3162 37.4611C21.3013 36.9509 22.2212 36.3214 23.0552 35.5873L36.852 45.3733H3.14861ZM38.3786 44.6608V44.7121L24.0357 34.5392C24.5901 33.8804 24.9114 33.055 24.9489 32.1921C24.9474 32.0047 24.9287 31.818 24.8931 31.6342C24.8852 31.5887 24.8789 31.5438 24.8697 31.4987V31.4917L38.379 26.4466L38.3786 44.6608Z" fill="#7F3E41"/>
<path d="M36.2576 41.3092C36.4451 41.3092 36.6249 41.2341 36.7575 41.1002C36.89 40.9666 36.9645 40.7856 36.9645 40.5967V34.6871C36.9645 34.2936 36.648 33.9746 36.2576 33.9746C35.8673 33.9746 35.5508 34.2936 35.5508 34.6871V40.5967C35.5508 40.7856 35.6253 40.9666 35.7578 41.1002C35.8903 41.2341 36.0702 41.3092 36.2576 41.3092Z" fill="#7F3E41"/>
<path d="M26.3611 43.9504H30.1535C30.5438 43.9504 30.8603 43.6314 30.8603 43.2379C30.8603 42.8444 30.5438 42.5254 30.1535 42.5254H26.3611C25.9708 42.5254 25.6543 42.8444 25.6543 43.2379C25.6543 43.6314 25.9708 43.9504 26.3611 43.9504Z" fill="#7F3E41"/>
<path d="M25.6541 15.4504H28.4815C28.8718 15.4504 29.1883 15.1314 29.1883 14.7379C29.1883 14.3444 28.8718 14.0254 28.4815 14.0254H25.6541C25.2638 14.0254 24.9473 14.3444 24.9473 14.7379C24.9473 15.1314 25.2638 15.4504 25.6541 15.4504Z" fill="#7F3E41"/>
<path d="M15.7596 18.3H28.4828C28.8731 18.3 29.1896 17.981 29.1896 17.5875C29.1896 17.194 28.8731 16.875 28.4828 16.875H15.7596C15.3692 16.875 15.0527 17.194 15.0527 17.5875C15.0527 17.981 15.3692 18.3 15.7596 18.3Z" fill="#7F3E41"/>
<path d="M10.8105 20.4371C10.8105 20.626 10.885 20.8074 11.0176 20.9409C11.1501 21.0745 11.33 21.1496 11.5174 21.1496H28.4817C28.872 21.1496 29.1885 20.8306 29.1885 20.4371C29.1885 20.0436 28.872 19.7246 28.4817 19.7246H11.5174C11.1271 19.7246 10.8105 20.0436 10.8105 20.4371Z" fill="#7F3E41"/>
<path d="M28.4817 22.5742H11.5174C11.1271 22.5742 10.8105 22.8933 10.8105 23.2867C10.8105 23.6802 11.1271 23.9992 11.5174 23.9992H28.4817C28.872 23.9992 29.1885 23.6802 29.1885 23.2867C29.1885 22.8933 28.872 22.5742 28.4817 22.5742Z" fill="#7F3E41"/>
<path d="M24.2406 26.1383C24.2406 25.9493 24.1661 25.768 24.0336 25.6344C23.9011 25.5009 23.7212 25.4258 23.5338 25.4258H11.5174C11.1271 25.4258 10.8105 25.7448 10.8105 26.1383C10.8105 26.5317 11.1271 26.8508 11.5174 26.8508H23.5338C23.7212 26.8508 23.9011 26.7757 24.0336 26.6421C24.1661 26.5085 24.2406 26.3272 24.2406 26.1383Z" fill="#7F3E41"/>
<path d="M22.8281 43.2381C22.83 43.5778 23.0698 43.8692 23.4009 43.9335C23.7319 43.998 24.0619 43.818 24.1894 43.5034C24.3169 43.1888 24.2062 42.8272 23.925 42.6399C23.6438 42.4522 23.2705 42.491 23.0332 42.7324C22.9042 42.8689 22.831 43.0495 22.8281 43.2381Z" fill="#7F3E41"/>
<path d="M36.2577 32.5508C36.4458 32.5527 36.6266 32.4783 36.7597 32.3443C36.8926 32.2101 36.9664 32.0279 36.9645 31.8383C36.9633 31.6493 36.8901 31.468 36.7594 31.3325C36.476 31.0688 36.0393 31.0688 35.7559 31.3325C35.6253 31.468 35.5521 31.6493 35.5508 31.8383C35.5489 32.0279 35.6228 32.2101 35.7556 32.3443C35.8888 32.4783 36.0696 32.5527 36.2577 32.5508Z" fill="#7F3E41"/>
<path d="M13.6385 13.3117C13.8256 13.3088 14.0048 13.235 14.1402 13.1049C14.2705 12.9691 14.344 12.7881 14.3453 12.5992C14.3453 12.311 14.173 12.0511 13.9089 11.9411C13.6448 11.8307 13.3409 11.8915 13.1386 12.0954C12.9363 12.2992 12.8761 12.6056 12.9856 12.8718C13.0948 13.138 13.3526 13.3117 13.6385 13.3117Z" fill="#7F3E41"/>
</svg>
