<svg width="1096" height="170" viewBox="0 0 1096 170" fill="none" xmlns="http://www.w3.org/2000/svg">
<g opacity="0.5">
<path d="M1011.11 3.86914C1025.63 3.86918 1038.54 6.23637 1049.63 11.2334L1050.68 11.709C1061.41 16.6851 1069.96 23.8352 1076.07 33.2139C1082.41 42.8231 1085.45 54.0599 1085.45 66.6172C1085.45 79.1841 1082.41 90.4279 1076.05 100.042L1076.02 100.085L1076.02 100.089C1071.95 106.144 1066.8 111.232 1060.65 115.378L1094.41 164.846L1094.94 165.627H1024.63L1024.48 165.407L999.598 128.521H996.901V165.627H932.969V3.86914H1011.11ZM940.558 158.039H989.313V120.933H1003.63L1003.78 121.153L1028.66 158.039H1080.58L1050.12 113.401L1049.8 112.932L1050.31 112.674C1052.3 111.661 1054.18 110.564 1055.97 109.385C1061.56 105.691 1066.14 101.181 1069.72 95.8545C1075.14 87.6557 1077.86 77.9171 1077.86 66.6172C1077.86 55.3157 1075.14 45.5754 1069.72 37.376L1069.72 37.373C1064.3 29.029 1056.57 22.6237 1046.53 18.1611L1046.53 18.1602C1036.63 13.6981 1024.83 11.458 1011.11 11.458H940.558V158.039ZM1007.94 48.8291C1014.89 48.8291 1020.1 50.3868 1023.47 53.6055H1023.47C1026.96 56.8078 1028.68 61.1653 1028.68 66.6172C1028.68 72.0686 1026.96 76.4247 1023.47 79.627L1023.47 79.6279C1020.1 82.8467 1014.89 84.4053 1007.94 84.4053H989.313V48.8291H1007.94ZM996.901 76.8164H1007.94C1013.96 76.8164 1016.87 75.4408 1018.22 74.1445L1018.28 74.0957L1018.28 74.0889L1018.33 74.041C1020 72.5183 1021.1 70.3333 1021.1 66.6172C1021.1 62.9008 1020 60.7151 1018.33 59.1924L1018.28 59.1455L1018.27 59.1377L1018.22 59.0889C1016.87 57.7926 1013.96 56.417 1007.94 56.417H996.901V76.8164Z" fill="#DADADA" stroke="#DADADA"/>
<path d="M904.171 3.86914V55.5742H833.121V58.6855H895.526V108.703H833.121V113.923H906.911V165.627H770.031V3.86914H904.171ZM777.62 158.039H899.323V121.511H825.532V101.114H887.938V66.2734H825.532V47.9854H896.582V11.458H777.62V158.039Z" fill="#DADADA" stroke="#DADADA"/>
<path d="M643.433 3.86914V56.1553H675.217V3.86914H739.15V165.627H675.217V111.233H643.433V165.627H579.5V3.86914H643.433ZM587.089 158.039H635.845V103.645H682.806V158.039H731.562V11.458H682.806V63.7432H635.845V11.458H587.089V158.039Z" fill="#DADADA" stroke="#DADADA"/>
<path d="M559.67 3.86914V56.6279H516.45V165.627H452.518V56.6279H409.297V3.86914H559.67ZM416.886 49.04H460.105V158.039H508.861V49.04H552.082V11.458H416.886V49.04Z" fill="#DADADA" stroke="#DADADA"/>
<path d="M307.202 0.5C320.04 0.5 331.999 2.51693 343.003 6.64355C353.945 10.7467 363.541 16.6374 371.708 24.3359H371.707C379.859 31.8801 386.177 40.8188 390.634 51.0928L391.063 52.0586C395.434 62.0712 397.569 73.0021 397.569 84.752C397.569 96.7627 395.286 108.008 390.642 118.394C386.185 128.674 379.871 137.678 371.731 145.356L371.684 145.402L371.68 145.406C363.513 152.957 353.926 158.765 343.003 162.861C332.008 166.985 320.121 169.005 307.413 169.005C294.574 169.005 282.558 166.987 271.433 162.872L271.404 162.862L271.402 162.861C260.48 158.765 250.892 152.956 242.726 145.405L242.677 145.36L242.673 145.357C234.54 137.685 228.164 128.692 223.569 118.431L223.535 118.355L223.533 118.35C219.042 107.973 216.836 96.7438 216.836 84.752C216.836 72.6345 219.037 61.3893 223.549 51.1201V51.1191L223.567 51.0771L223.568 51.0742C228.165 40.8097 234.548 31.8761 242.7 24.333C250.867 16.6358 260.462 10.7462 271.402 6.64355L271.43 6.63379L271.433 6.63281C282.549 2.52122 294.493 0.500028 307.202 0.5ZM307.202 8.08887C295.309 8.0889 284.264 9.97742 274.064 13.75L274.063 13.749C264.004 17.5219 255.278 22.9 247.881 29.8789L247.877 29.8818C240.478 36.7224 234.685 44.8192 230.495 54.1758L230.494 54.1748C226.45 63.3804 224.425 73.5706 224.425 84.752C224.425 95.7906 226.449 105.981 230.494 115.329C234.684 124.687 240.48 132.855 247.881 139.837H247.88C255.277 146.675 264.003 151.982 274.063 155.755H274.064C284.264 159.527 295.379 161.416 307.413 161.416C319.306 161.416 330.28 159.528 340.338 155.756C350.399 151.983 359.126 146.676 366.524 139.837L367.213 139.179C374.28 132.344 379.774 124.397 383.696 115.335L383.699 115.329C387.885 105.981 389.98 95.7906 389.98 84.752C389.98 73.5718 387.884 63.3827 383.7 54.1777L383.696 54.1699C379.648 44.816 373.926 36.7211 366.528 29.8818L366.524 29.8789C359.126 22.8993 350.399 17.5219 340.338 13.749C330.28 9.97751 319.237 8.08887 307.202 8.08887Z" fill="#DADADA" stroke="#DADADA"/>
<path d="M52.46 3.86914L52.6064 4.1084L96.5254 75.791L139.188 4.11328L139.333 3.86914H191.333L191.334 4.36816L191.793 165.126L191.795 165.627H132.307L132.304 165.13L132.046 116.797L111.068 152.101L110.923 152.345H81.0176L80.8701 152.108L60.0059 118.445V165.627H0.5V3.86914H52.46ZM8.08887 158.039H52.417V91.7969L53.3418 93.29L85.2422 144.757H106.605L138.569 90.9668L139.49 89.418L139.499 91.2197L139.854 158.039H184.186L183.766 11.458H143.647L97.0439 89.7588L96.6201 90.4707L96.1875 89.7646L48.21 11.458H8.08887V158.039Z" fill="#DADADA" stroke="#DADADA"/>
<path d="M307.468 50.5527C324.295 50.5529 338.412 65.6516 338.412 84.8916C338.412 104.131 324.295 119.229 307.468 119.229C290.641 119.229 276.524 104.132 276.523 84.8916C276.523 65.6515 290.64 50.5527 307.468 50.5527Z" fill="#DADADA" stroke="#DADADA" stroke-width="6"/>
</g>
</svg>
