<svg width="1553" height="238" viewBox="0 0 1553 238" fill="none" xmlns="http://www.w3.org/2000/svg">
<path fill-rule="evenodd" clip-rule="evenodd" d="M1324.91 233.201V4.78711H1435.22C1455.78 4.78711 1474.02 8.13951 1489.67 15.1899C1505.51 22.2335 1518.06 32.5318 1526.93 46.1631C1535.86 59.684 1540.14 75.5083 1540.14 93.2321C1540.14 110.97 1535.85 126.805 1526.91 140.332L1526.87 140.394C1521 149.113 1513.55 156.411 1504.63 162.325L1552.99 233.201H1454.81L1419.25 180.479H1414.33V233.201H1324.91ZM1404.97 68.6682V117.796H1430.73C1440.51 117.796 1447.7 115.599 1452.3 111.206C1457.09 106.812 1459.49 100.821 1459.49 93.2321C1459.49 85.6432 1457.09 79.652 1452.3 75.2585C1447.7 70.8649 1440.51 68.6682 1430.73 68.6682H1404.97ZM1414.33 108.435H1430.73C1439.37 108.435 1443.71 106.462 1445.83 104.441L1445.9 104.372L1445.97 104.305C1448.5 101.985 1450.12 98.6771 1450.12 93.2321C1450.12 87.787 1448.5 84.4791 1445.97 82.1591L1445.9 82.092L1445.83 82.0233C1443.71 80.002 1439.37 78.0294 1430.73 78.0294H1414.33V108.435Z" fill="#DADADA" fill-opacity="0.1"/>
<path fill-rule="evenodd" clip-rule="evenodd" d="M1181.62 76.8312H1282.57V4.78711H1093.4V233.201H1286.46V161.157H1181.62V152.32H1270.29V82.6726H1181.62V76.8312Z" fill="#DADADA" fill-opacity="0.1"/>
<path fill-rule="evenodd" clip-rule="evenodd" d="M958.674 4.78711H1048.09V233.201H958.674V155.915H912.092V233.201H822.674V4.78711H912.092V79.0779H958.674V4.78711Z" fill="#DADADA" fill-opacity="0.1"/>
<path fill-rule="evenodd" clip-rule="evenodd" d="M642.246 233.201V78.329H580.836V4.78711H793.074V78.329H731.664V233.201H642.246Z" fill="#DADADA" fill-opacity="0.1"/>
<path fill-rule="evenodd" clip-rule="evenodd" d="M384.494 229.331L384.455 229.316C369.015 223.526 355.474 215.319 343.942 204.658L343.872 204.594C332.385 193.757 323.38 181.057 316.889 166.561L316.842 166.454C310.501 151.807 307.385 135.95 307.385 119C307.385 101.87 310.495 85.9903 316.863 71.4985L316.889 71.4386C323.381 56.9399 332.395 44.3256 343.907 33.674C355.439 22.8037 368.991 14.4829 384.455 8.68414L384.494 8.66932C400.204 2.85896 417.091 0 435.072 0C453.237 0 470.142 2.85405 485.689 8.68415C501.153 14.4829 514.705 22.8037 526.237 33.674C537.752 44.3287 546.674 56.953 552.968 71.4676C559.544 85.9649 562.759 101.857 562.759 119C562.759 135.973 559.533 151.85 552.978 166.509C546.684 181.031 537.768 193.748 526.271 204.593L526.203 204.658C514.671 215.32 501.129 223.526 485.689 229.316C470.154 235.141 453.351 238 435.372 238C417.204 238 400.216 235.145 384.494 229.331Z" fill="#DADADA" fill-opacity="0.1"/>
<path fill-rule="evenodd" clip-rule="evenodd" d="M0 233.414V5H72.7188L135.737 107.855L196.955 5H269.727L270.379 233.414H187.274L186.895 162.181L155.78 214.542H114.088L83.1278 164.59V233.414H0Z" fill="#DADADA" fill-opacity="0.1"/>
</svg>
