<svg width="30" height="46" viewBox="0 0 30 46" fill="none" xmlns="http://www.w3.org/2000/svg">
<path d="M16.6871 19.9863C16.0862 19.9845 15.4985 20.1689 15.0003 20.5157C14.5021 20.1689 13.9145 19.9845 13.3135 19.9863C12.5087 19.9873 11.7367 20.3179 11.1677 20.9058C10.5984 21.4934 10.2783 22.2906 10.2773 23.1217C10.2773 25.9086 14.2461 28.0399 14.6988 28.2776C14.8886 28.3755 15.1121 28.3755 15.3018 28.2776C15.7546 28.0399 19.7233 25.9086 19.7233 23.1217C19.7224 22.2905 19.4022 21.4934 18.8329 20.9058C18.2639 20.3179 17.4919 19.9873 16.6871 19.9863ZM15.0003 26.8617C13.837 26.1957 11.6268 24.6197 11.6268 23.1217C11.6277 22.6582 11.8075 22.2141 12.1265 21.8881C12.4452 21.5618 12.8768 21.3801 13.3259 21.3836C13.7747 21.387 14.2037 21.5749 14.5178 21.9058C14.7871 22.1739 15.2136 22.1739 15.4829 21.9058C15.7983 21.5686 16.2332 21.3789 16.6871 21.3798C17.1344 21.3798 17.5636 21.5634 17.8799 21.8899C18.1962 22.2165 18.3739 22.6598 18.3739 23.1217C18.3739 24.6197 16.1636 26.1957 15.0003 26.8617Z" fill="#7F3E41"/>
<path d="M14.3264 15.1088C14.3264 15.2936 14.3975 15.4709 14.524 15.6015C14.6505 15.7321 14.8222 15.8056 15.0012 15.8056C18.1301 15.8152 21.019 17.5393 22.5889 20.3344C22.7094 20.5499 22.9323 20.6827 23.1732 20.6827C23.2916 20.6831 23.4082 20.6504 23.5106 20.5888C23.6657 20.4961 23.7787 20.3437 23.8248 20.1652C23.8711 19.9866 23.8464 19.7963 23.7567 19.6364C21.9449 16.4115 18.6114 14.4226 15.0009 14.4121C14.6283 14.4121 14.3264 14.7241 14.3264 15.1088Z" fill="#7F3E41"/>
<path d="M23.2915 22.2783C23.1668 22.4108 23.0966 22.5881 23.0957 22.7729C23.0981 22.9573 23.168 23.1343 23.2915 23.2675C23.4198 23.3962 23.5915 23.4684 23.7704 23.4696C23.9951 23.4684 24.2045 23.3514 24.3289 23.158C24.453 22.9648 24.4758 22.72 24.3897 22.5057C24.3036 22.2914 24.1195 22.1356 23.8993 22.0898C23.6788 22.0441 23.4508 22.1147 23.2915 22.2783Z" fill="#7F3E41"/>
<path d="M27.3136 1H17.8677C17.4951 1 17.193 1.31198 17.193 1.69674C17.193 2.44356 16.8071 3.13346 16.1809 3.50699C15.5547 3.88025 14.783 3.88025 14.1568 3.50699C13.5306 3.13343 13.1447 2.44357 13.1447 1.69674C13.1447 1.51198 13.0736 1.33468 12.9471 1.20405C12.8206 1.07341 12.6489 1 12.47 1H3.02409C2.48734 1 1.97224 1.22022 1.59278 1.61214C1.21332 2.00406 1 2.53597 1 3.09018V6.57389C1 7.31292 1.28434 8.02183 1.79037 8.54467C2.29671 9.06722 2.98318 9.36085 3.69884 9.36085H5.24674C4.97294 10.3036 4.98257 11.3101 5.27505 12.2473C5.56723 13.1842 6.12804 14.0075 6.88348 14.6079C5.46659 15.8499 4.32745 17.3942 3.54456 19.1346C2.76174 20.8751 2.35414 22.77 2.34936 24.6892C2.34936 25.1073 2.37285 25.5253 2.4102 25.9337C2.41562 25.9888 2.41833 26.0438 2.42436 26.0983C2.46351 26.4802 2.52074 26.8585 2.59243 27.2333C2.6078 27.3145 2.62406 27.3953 2.64093 27.4759C2.71442 27.8243 2.79937 28.1726 2.90147 28.521C2.9325 28.6268 2.96895 28.73 3.00208 28.8352C3.0822 29.0837 3.16955 29.3303 3.26443 29.5751C3.33401 29.7549 3.4072 29.9322 3.48371 30.1067C3.55118 30.2669 3.62257 30.4271 3.69908 30.586L3.69878 42.1081C3.69998 43.0317 4.05571 43.9172 4.68794 44.5704C5.32048 45.2233 6.17801 45.5906 7.07233 45.5918H23.2654C24.1597 45.5906 25.0172 45.2232 25.6497 44.5704C26.282 43.9172 26.6377 43.0317 26.6389 42.1081V30.5836C27.529 28.755 27.9913 26.736 27.9883 24.6894C27.9871 22.6925 27.5479 20.722 26.7037 18.9257C25.8594 17.1294 24.632 15.554 23.1135 14.3176C24.0753 13.3997 24.6199 12.107 24.6148 10.7546C24.6142 10.2827 24.5473 9.81337 24.4163 9.36108H26.6389C27.3546 9.36108 28.041 9.06746 28.5473 8.5449C29.0534 8.02204 29.3377 7.31314 29.3377 6.57412V3.09042C29.3377 2.53614 29.1245 2.00422 28.7449 1.61237C28.3654 1.22052 27.8503 1 27.3136 1ZM15.1689 5.18044C15.9463 5.17951 16.6996 4.90175 17.302 4.39412C17.9041 3.8865 18.3183 3.1798 18.4749 2.39348H19.1563C19.1563 2.40966 19.1514 2.4249 19.1487 2.44014C19.1123 2.65009 19.0602 2.85663 18.9924 3.05818C18.9795 3.09426 18.9668 3.12786 18.9533 3.16674C18.8819 3.36519 18.7957 3.55741 18.6954 3.74155C18.6813 3.76799 18.665 3.79319 18.6502 3.819C18.543 4.00874 18.4213 4.18946 18.2867 4.3596L18.2746 4.37298C18.1385 4.54064 17.9897 4.69678 17.8291 4.83986C17.8111 4.85666 17.7948 4.87407 17.7764 4.88994C17.6186 5.02648 17.4514 5.14997 17.2752 5.25977C17.2454 5.27843 17.2165 5.2974 17.1861 5.31544C17.0099 5.42089 16.8261 5.51234 16.6364 5.58885L16.5358 5.62711C16.3382 5.70083 16.1351 5.75899 15.9285 5.80068C15.9014 5.80628 15.8746 5.80907 15.8475 5.81405C15.3984 5.89866 14.9381 5.89834 14.4887 5.81374C14.4616 5.80876 14.4348 5.80596 14.4077 5.80037C14.2011 5.759 13.9981 5.70083 13.8005 5.62649C13.7667 5.61467 13.733 5.60223 13.7005 5.58885C13.5101 5.51234 13.3261 5.4212 13.1496 5.31576L13.0619 5.2607C12.8857 5.14997 12.7173 5.02586 12.5592 4.88931C12.5417 4.87407 12.5261 4.85727 12.5092 4.84203C12.3471 4.6974 12.1965 4.53938 12.0586 4.37017L12.0504 4.36115C11.9146 4.18977 11.792 4.0075 11.6839 3.8162C11.6697 3.79194 11.655 3.76892 11.6414 3.74653C11.5402 3.56052 11.4534 3.36643 11.3818 3.16611C11.3688 3.1319 11.3568 3.09644 11.3447 3.06378C11.2763 2.85942 11.2233 2.64978 11.1869 2.43671C11.1869 2.42271 11.183 2.40747 11.1802 2.39347H11.8628C12.0194 3.1798 12.4336 3.88649 13.0357 4.39411C13.6381 4.90174 14.3914 5.17951 15.1689 5.18044ZM27.9883 6.57393C27.9883 6.94345 27.8462 7.29804 27.5931 7.55932C27.3401 7.82059 26.9967 7.96741 26.6389 7.96741H23.3943C23.1533 7.96772 22.9307 8.10054 22.8106 8.31609C22.6901 8.53164 22.6901 8.79697 22.8106 9.01252C23.2539 9.8007 23.3792 10.7373 23.1597 11.62C22.9398 12.5028 22.3928 13.261 21.6367 13.7308C21.4403 13.8536 21.3181 14.0714 21.312 14.3084C21.306 14.5454 21.4172 14.7693 21.6069 14.9028C24.7512 17.1022 26.6359 20.7675 26.6389 24.689C26.6413 26.5715 26.204 28.4268 25.3645 30.0978C25.3151 30.1964 25.2895 30.3059 25.2895 30.4169V42.1078C25.2895 42.6621 25.0763 43.194 24.6968 43.5859C24.3172 43.9777 23.8021 44.198 23.2655 44.198H7.07243C6.53568 44.198 6.02058 43.9778 5.64112 43.5859C5.26167 43.194 5.04834 42.662 5.04834 42.1078V32.785C6.24261 34.3838 7.77579 35.6787 9.53003 36.5701C11.2846 37.4619 13.2136 37.9259 15.169 37.9275C15.5416 37.9275 15.8437 37.6156 15.8437 37.2308C15.8437 36.846 15.5416 36.5341 15.169 36.5341C12.9418 36.5309 10.7638 35.8591 8.89989 34.6006C7.03599 33.3418 5.56667 31.5505 4.6712 29.4447C4.61306 29.3054 4.56186 29.171 4.50854 29.0329C4.43173 28.8335 4.35944 28.6317 4.29317 28.4261C4.26155 28.3312 4.2257 28.2366 4.19859 28.1405C4.10823 27.8354 4.03202 27.5225 3.96516 27.2077C3.94889 27.1284 3.93202 27.0487 3.91666 26.9694C3.85401 26.6385 3.80341 26.3035 3.76756 25.9641C3.76154 25.9063 3.75823 25.8478 3.7528 25.7899C3.72058 25.4273 3.69889 25.0609 3.69889 24.6895C3.70913 20.8925 5.47719 17.3298 8.45617 15.1039C8.64984 14.9593 8.75497 14.7195 8.73237 14.4738C8.70978 14.228 8.5628 14.0128 8.34622 13.9083C7.48807 13.4977 6.83688 12.7325 6.55281 11.8009C6.26847 10.8694 6.37721 9.8569 6.85251 9.01238C6.97299 8.79682 6.97299 8.5315 6.85251 8.31595C6.73233 8.10039 6.50973 7.96758 6.26877 7.96727H3.69886C3.34102 7.96727 2.99764 7.82045 2.74463 7.55917C2.49161 7.2979 2.34944 6.9433 2.34944 6.57378V3.09008C2.34944 2.70532 2.65155 2.39334 3.02415 2.39334H9.81311C9.82396 2.48168 9.84203 2.56752 9.85709 2.65461C9.86853 2.72429 9.87727 2.78992 9.89082 2.8568C9.91522 2.9753 9.94685 3.09163 9.97847 3.20517C9.99323 3.26022 10.0047 3.3159 10.0209 3.36878C10.0721 3.53643 10.1306 3.70097 10.1956 3.86209C10.1956 3.86831 10.2017 3.87391 10.2044 3.88013C10.2679 4.0341 10.3393 4.18464 10.4149 4.33084C10.4426 4.38372 10.4749 4.43473 10.5041 4.48636C10.5586 4.58403 10.6134 4.68138 10.674 4.7747C10.7116 4.83318 10.7529 4.88823 10.7926 4.94546C10.8508 5.02851 10.908 5.11125 10.9701 5.19056C11.0152 5.24842 11.0637 5.30285 11.111 5.35853C11.1737 5.43225 11.2357 5.50566 11.302 5.57595C11.3532 5.63038 11.4071 5.68264 11.4604 5.7349C11.5279 5.80115 11.5954 5.86584 11.6668 5.92868C11.7234 5.97876 11.7815 6.02697 11.8402 6.07487C11.9131 6.13334 11.9866 6.19057 12.0622 6.24563C12.1237 6.29104 12.1857 6.33397 12.2484 6.37595C12.3267 6.42821 12.4056 6.47766 12.4866 6.52588C12.5541 6.56414 12.6168 6.60177 12.683 6.63817C12.7668 6.68358 12.8517 6.72464 12.9382 6.76508C13.0056 6.79712 13.0731 6.82915 13.1406 6.85777C13.2309 6.89603 13.3234 6.92745 13.4159 6.96228C13.4833 6.98655 13.5508 7.01174 13.6183 7.03196C13.7162 7.06275 13.8168 7.08701 13.918 7.11127C13.9855 7.12807 14.0529 7.14673 14.1204 7.16073C14.2331 7.18375 14.3484 7.19899 14.4632 7.21516C14.5213 7.22294 14.5785 7.23476 14.6373 7.24036C14.812 7.25778 14.9888 7.26835 15.1683 7.26835C15.3478 7.26835 15.5246 7.25778 15.6993 7.24036C15.7581 7.23476 15.8147 7.22294 15.8734 7.21516C15.9882 7.19899 16.1036 7.18375 16.2162 7.16073C16.2837 7.14673 16.3512 7.12807 16.4186 7.1119C16.5192 7.0867 16.621 7.06244 16.7183 7.03165C16.7858 7.01019 16.8533 6.98499 16.9207 6.96197C17.0132 6.92931 17.1057 6.89572 17.196 6.85746C17.2635 6.82885 17.331 6.79681 17.3985 6.7654C17.4849 6.72434 17.5705 6.68329 17.6548 6.63787C17.7223 6.60178 17.7849 6.56415 17.8497 6.52652C17.9307 6.47768 18.0108 6.4276 18.0891 6.37535C18.1518 6.33367 18.2132 6.29106 18.2735 6.24658C18.3503 6.19152 18.4241 6.13366 18.4976 6.07456C18.5557 6.02729 18.6129 5.97908 18.6696 5.92962C18.7409 5.86617 18.8093 5.80147 18.8774 5.7346C18.9307 5.68234 18.9834 5.63071 19.0346 5.57658C19.1021 5.50691 19.1641 5.43226 19.2277 5.35854C19.2744 5.30286 19.3223 5.24905 19.3675 5.19119C19.4289 5.11094 19.4867 5.0282 19.5455 4.94453C19.5852 4.88823 19.6259 4.83318 19.6635 4.77532C19.7244 4.68201 19.7789 4.58372 19.8343 4.48605C19.8632 4.4338 19.8952 4.38434 19.9226 4.33146C19.9976 4.18807 20.0669 4.04033 20.1289 3.88916C20.1328 3.87951 20.1383 3.87049 20.1425 3.86054C20.2099 3.70097 20.2654 3.53798 20.316 3.37282C20.334 3.31434 20.347 3.25369 20.3627 3.19459C20.3931 3.08448 20.4226 2.97437 20.4464 2.86084C20.4611 2.79117 20.4708 2.71465 20.4828 2.64217C20.4949 2.5697 20.5145 2.47856 20.5241 2.39489L27.3137 2.39396C27.4926 2.39396 27.6643 2.46737 27.7908 2.598C27.9173 2.72864 27.9884 2.90594 27.9884 3.0907L27.9883 6.57393Z" fill="#7F3E41"/>
</svg>
