<svg width="46" height="52" viewBox="0 0 46 52" fill="none" xmlns="http://www.w3.org/2000/svg">
<path d="M19.965 14.4219C18.5571 14.4236 17.207 14.9932 16.2116 16.0063C15.2159 17.019 14.656 18.3926 14.6543 19.825V26.7718C14.6543 26.9765 14.7342 27.1729 14.8765 27.3176C15.0187 27.4624 15.2118 27.5437 15.413 27.5437H18.6479C19.6382 28.994 21.264 29.859 22.9997 29.859C24.7355 29.859 26.3613 28.994 27.3516 27.5437H30.5865C30.7877 27.5437 30.9808 27.4624 31.123 27.3176C31.2653 27.1729 31.3452 26.9765 31.3452 26.7718V19.825C31.3466 18.5018 30.8703 17.2241 30.0064 16.2348C29.1427 15.2454 27.9515 14.6135 26.6597 14.4591C25.3679 14.3044 24.0656 14.6383 22.9997 15.3967C22.1107 14.7623 21.0509 14.4222 19.965 14.4219ZM22.9997 28.3156C22.2763 28.3131 21.5684 28.1005 20.9602 27.7025C20.3515 27.3042 19.8675 26.7374 19.5654 26.0686C19.538 26.0114 19.5092 25.9535 19.4895 25.8949C19.4127 25.7023 19.3517 25.5034 19.3073 25.3008C19.2951 25.2467 19.287 25.1926 19.2768 25.1378C19.2338 24.9132 19.2101 24.685 19.2064 24.4562V21.3687H26.7932V24.4562C26.7905 24.6833 26.7678 24.91 26.7258 25.133C26.7142 25.1971 26.7031 25.2605 26.6878 25.3229C26.6438 25.5269 26.5832 25.7274 26.5056 25.9214C26.486 25.97 26.4592 26.0165 26.4365 26.0651C26.1347 26.735 25.6507 27.3025 25.0418 27.7016C24.4325 28.1002 23.7239 28.3135 22.9997 28.3156ZM23.5058 16.9554C24.236 16.2869 25.1928 15.933 26.1743 15.9684C27.1558 16.0039 28.0856 16.4261 28.7673 17.1456C29.4488 17.8651 29.8291 18.8258 29.8277 19.8251V26H28.0828C28.1478 25.775 28.1986 25.5462 28.2345 25.3147C28.242 25.2661 28.2504 25.2175 28.2565 25.1689C28.2897 24.9329 28.308 24.6947 28.3104 24.4563V20.5969C28.3104 20.3923 28.2305 20.1958 28.0882 20.0511C27.946 19.9064 27.7529 19.8251 27.5517 19.8251H18.4476C18.0286 19.8251 17.6889 20.1707 17.6889 20.5969V24.4563C17.6909 24.6937 17.7079 24.9311 17.7397 25.1665C17.7472 25.2175 17.755 25.2675 17.7631 25.3209C17.7973 25.5483 17.8467 25.7737 17.9104 25.9945V26.0031H16.1715V19.8251C16.1698 18.8258 16.5502 17.8651 17.2317 17.1452C17.9131 16.4257 18.8429 16.0037 19.8244 15.9681C20.8062 15.9326 21.7627 16.2865 22.4929 16.9553C22.7811 17.2179 23.2175 17.218 23.5058 16.9554Z" fill="#7F3E41"/>
<path d="M45.5385 22.3674L25.0542 1.52683C24.912 1.38211 24.7189 1.30078 24.5177 1.30078H21.483C21.2818 1.30078 21.0888 1.3821 20.9465 1.52683L14.655 7.92816V6.70384C14.8562 6.70384 15.0492 6.62252 15.1915 6.47779C15.3337 6.33307 15.4137 6.13665 15.4137 5.93197V3.61635C15.4137 3.41167 15.3337 3.21525 15.1915 3.07053C15.0492 2.92581 14.8562 2.84448 14.655 2.84448H7.06821C6.64924 2.84448 6.30953 3.1901 6.30953 3.61635V5.93197C6.30953 6.13665 6.38946 6.33307 6.53171 6.47779C6.67396 6.62251 6.86702 6.70384 7.06821 6.70384V15.647L0.462251 22.3675C0.166229 22.669 0.166229 23.1576 0.462251 23.4591L2.73828 25.7747C3.03464 26.0759 3.51491 26.0759 3.81127 25.7747L5.55076 24.0046V42.2102C5.55076 42.4149 5.6307 42.6113 5.77295 42.756C5.9152 42.9007 6.10826 42.9821 6.30944 42.9821H11.6202V49.9289C11.6202 50.1336 11.7001 50.33 11.8424 50.4747C11.9846 50.6195 12.1777 50.7008 12.3789 50.7008H33.6218C33.823 50.7008 34.0161 50.6195 34.1583 50.4747C34.3006 50.33 34.3805 50.1336 34.3805 49.9289V42.9821H39.6912C39.8924 42.9821 40.0855 42.9007 40.2277 42.756C40.37 42.6113 40.4499 42.4149 40.4499 42.2102V24.0046L42.1894 25.7744C42.4858 26.0755 42.966 26.0759 43.2624 25.7747L45.5384 23.4591C45.8344 23.1576 45.8345 22.6689 45.5385 22.3674ZM7.82662 4.38849H13.896V5.16036H7.82662V4.38849ZM8.5853 6.7041H9.34398V7.47597C9.34398 7.90222 9.68369 8.24785 10.1027 8.24785C10.5216 8.24785 10.8613 7.90222 10.8613 7.47597V6.7041H13.1374V9.47217L8.5853 14.1034V6.7041ZM32.863 49.157H29.8283V46.0696C29.8256 45.9886 29.8096 45.9083 29.7812 45.8325C30.297 45.2674 30.5846 44.5252 30.5869 43.754C30.5869 43.3277 30.2472 42.9821 29.8283 42.9821C29.4093 42.9821 29.0696 43.3277 29.0696 43.754C29.0696 44.1633 28.9097 44.5562 28.6252 44.8456C28.3407 45.1351 27.9546 45.2977 27.5522 45.2977C27.1333 45.2977 26.7936 45.6433 26.7936 46.0696C26.7936 46.4958 27.1333 46.8415 27.5522 46.8415C27.8086 46.838 28.0637 46.8012 28.3109 46.7319V49.1571H17.6894V46.7319C17.9367 46.8012 18.1917 46.838 18.4481 46.8415C18.8671 46.8415 19.2068 46.4958 19.2068 46.0696C19.2068 45.6434 18.8671 45.2977 18.4481 45.2977C18.0457 45.2977 17.6596 45.1351 17.3751 44.8456C17.0906 44.5562 16.9308 44.1633 16.9308 43.754C16.9308 43.3277 16.591 42.9821 16.1721 42.9821C15.7531 42.9821 15.4134 43.3277 15.4134 43.754C15.4158 44.5252 15.7033 45.2674 16.2192 45.8325C16.191 45.9086 16.1751 45.9886 16.1721 46.0696V49.157H13.1374V35.2634C13.1374 34.8371 13.4771 34.4915 13.896 34.4915H16.9778C16.99 34.5893 17.0104 34.6844 17.0273 34.7809C17.0402 34.8581 17.05 34.9308 17.0652 35.0049C17.0927 35.1362 17.1282 35.2651 17.1638 35.3908C17.1804 35.4518 17.1932 35.5135 17.2115 35.5721C17.2691 35.7578 17.3348 35.9401 17.408 36.1186C17.408 36.1255 17.4147 36.1317 17.4178 36.1386C17.4893 36.3092 17.5695 36.4759 17.6545 36.6379C17.6857 36.6965 17.7219 36.753 17.7548 36.8102C17.8161 36.9184 17.8777 37.0262 17.9458 37.1296C17.9882 37.1944 18.0346 37.2554 18.0793 37.3188C18.1446 37.4108 18.209 37.5025 18.2788 37.5903C18.3296 37.6544 18.3841 37.7147 18.4373 37.7764C18.5077 37.8581 18.5775 37.9394 18.652 38.0173C18.7096 38.0776 18.7702 38.1355 18.8302 38.1934C18.906 38.2668 18.9819 38.3384 19.0622 38.408C19.1258 38.4635 19.1912 38.5169 19.2573 38.57C19.3392 38.6348 19.4219 38.6982 19.5069 38.7592C19.576 38.8095 19.6457 38.857 19.7162 38.9035C19.8042 38.9614 19.893 39.0162 19.9841 39.0696C20.06 39.112 20.1304 39.1537 20.2049 39.194C20.2991 39.2443 20.3946 39.2898 20.4918 39.3346C20.5677 39.3701 20.6435 39.4056 20.7194 39.4373C20.821 39.4797 20.925 39.5145 21.029 39.5531C21.1048 39.58 21.1807 39.6079 21.2566 39.6303C21.3666 39.6644 21.4798 39.6913 21.5936 39.7182C21.6694 39.7368 21.7453 39.7574 21.8212 39.7729C21.9478 39.7984 22.0776 39.8153 22.2066 39.8332C22.272 39.8419 22.3363 39.855 22.4024 39.8612C22.5988 39.8805 22.7976 39.8922 22.9995 39.8922C23.2014 39.8922 23.4002 39.8805 23.5966 39.8612C23.6627 39.855 23.7263 39.8419 23.7924 39.8332C23.9214 39.8153 24.0511 39.7984 24.1778 39.7729C24.2537 39.7574 24.3295 39.7368 24.4054 39.7188C24.5185 39.6909 24.633 39.6641 24.7424 39.6299C24.8183 39.6062 24.8941 39.5783 24.97 39.5528C25.074 39.5166 25.178 39.4794 25.2796 39.437C25.3555 39.4053 25.4313 39.3698 25.5072 39.335C25.6044 39.2895 25.7006 39.244 25.7954 39.1937C25.8713 39.1537 25.9417 39.112 26.0145 39.0703C26.1057 39.0162 26.1957 38.9608 26.2838 38.9029C26.3543 38.8567 26.4234 38.8095 26.4911 38.7602C26.5775 38.6992 26.6604 38.6351 26.7431 38.5697C26.8084 38.5173 26.8728 38.4639 26.9365 38.4091C27.0167 38.3388 27.0936 38.2671 27.1702 38.193C27.2301 38.1351 27.2894 38.0779 27.347 38.018C27.4228 37.9408 27.4926 37.8581 27.5641 37.7764C27.6166 37.7147 27.6704 37.6551 27.7212 37.591C27.7903 37.5021 27.8554 37.4105 27.9214 37.3178C27.9661 37.2554 28.0118 37.1944 28.0542 37.1303C28.1226 37.0269 28.1839 36.9181 28.2462 36.8099C28.2787 36.752 28.3146 36.6972 28.3454 36.6386C28.4298 36.4797 28.5077 36.3161 28.5774 36.1486C28.5818 36.1379 28.5879 36.1279 28.5927 36.1169C28.6686 35.9401 28.7309 35.7596 28.7878 35.5766C28.8081 35.5118 28.8227 35.4446 28.8403 35.3791C28.8745 35.2571 28.9077 35.1352 28.9344 35.0094C28.951 34.9322 28.9619 34.8474 28.9754 34.7671C28.989 34.6869 29.011 34.5859 29.0218 34.4932L32.1043 34.4922C32.3055 34.4922 32.4985 34.5735 32.6408 34.7182C32.783 34.8629 32.863 35.0593 32.863 35.264V49.157ZM25.1122 34.5682C25.097 34.6092 25.078 34.6454 25.0597 34.6885C25.0194 34.7757 24.9747 34.8601 24.9249 34.9418C24.9023 34.979 24.8802 35.0189 24.8558 35.0513C24.7915 35.1437 24.7204 35.2312 24.6435 35.3132C24.6282 35.3287 24.6161 35.3473 24.6001 35.3625C24.5067 35.4573 24.405 35.5434 24.2967 35.6203C24.2662 35.6409 24.233 35.6589 24.2018 35.6788C24.1192 35.7316 24.0332 35.7791 23.9448 35.8212C23.9031 35.8405 23.8614 35.8573 23.8188 35.8746C23.7294 35.9094 23.6379 35.938 23.5448 35.9607C23.5031 35.9714 23.4621 35.9838 23.4205 35.9917C23.1451 36.0489 22.8613 36.0489 22.5859 35.9917C22.5443 35.9841 22.5033 35.9717 22.4616 35.9607C22.3685 35.938 22.277 35.909 22.1876 35.8742C22.1453 35.8573 22.1026 35.8401 22.0616 35.8208C21.9732 35.7788 21.8872 35.7316 21.8045 35.6788C21.7727 35.6589 21.7402 35.6409 21.7097 35.6196C21.6013 35.5431 21.5001 35.4573 21.4062 35.3632C21.3903 35.347 21.3768 35.3277 21.3608 35.3108C21.2853 35.2298 21.2149 35.1434 21.1512 35.052C21.1255 35.0159 21.1034 34.9749 21.0807 34.9401C21.031 34.8601 20.9866 34.7771 20.948 34.6909C20.929 34.6499 20.9094 34.6082 20.8924 34.5658C20.8833 34.5421 20.8789 34.5155 20.8704 34.4886H25.1417C25.1245 34.5166 25.1244 34.5434 25.1122 34.5682ZM19.2826 34.491C19.2826 34.5048 19.2911 34.5179 19.2942 34.532C19.3409 34.7515 19.4066 34.9669 19.4906 35.175C19.5201 35.2484 19.5597 35.3156 19.5939 35.3873C19.6589 35.5286 19.7321 35.6657 19.8137 35.7977C19.8622 35.8749 19.917 35.9452 19.9709 36.0175C20.0545 36.1326 20.144 36.2436 20.2395 36.349C20.3031 36.4176 20.3692 36.4817 20.4376 36.5458C20.5396 36.6413 20.6459 36.7308 20.7577 36.8142C20.8335 36.8708 20.9094 36.9245 20.9853 36.9755C21.1062 37.0517 21.2312 37.1209 21.3599 37.1826C21.4401 37.2226 21.5191 37.2643 21.6027 37.2984C21.75 37.3552 21.9004 37.4028 22.0532 37.441C22.1291 37.461 22.2005 37.4872 22.2808 37.5027C22.7567 37.6016 23.2468 37.6016 23.7223 37.5027C23.7981 37.4872 23.874 37.461 23.9461 37.441C24.1006 37.4031 24.2527 37.3552 24.4014 37.2984C24.4847 37.2643 24.5636 37.2212 24.6435 37.1826C24.7736 37.1213 24.9003 37.052 25.0229 36.9758C25.0987 36.9248 25.1746 36.8707 25.2505 36.8146C25.3619 36.7312 25.4686 36.6413 25.5705 36.5458C25.639 36.4817 25.7057 36.4176 25.7687 36.349C25.8638 36.2436 25.9533 36.133 26.0362 36.0179C26.0901 35.9452 26.1463 35.8742 26.1941 35.798C26.2754 35.6668 26.3485 35.5296 26.4129 35.3887C26.4471 35.317 26.4887 35.2491 26.5175 35.175C26.6008 34.9669 26.6666 34.7522 26.714 34.5327C26.714 34.5179 26.7224 34.5059 26.7255 34.491H27.4838C27.4838 34.509 27.4784 34.5258 27.4753 34.5427C27.4344 34.7753 27.3758 35.0041 27.2996 35.2274C27.285 35.2674 27.2708 35.3046 27.2555 35.3477C27.1753 35.5675 27.0784 35.7805 26.9656 35.9845C26.9497 36.0138 26.9314 36.0417 26.9148 36.0703C26.7942 36.2805 26.6574 36.4807 26.506 36.6692L26.4925 36.684C26.3394 36.8697 26.1721 37.0427 25.9915 37.2012C25.9712 37.2198 25.9529 37.2391 25.9323 37.2567C25.7548 37.408 25.5668 37.5448 25.3687 37.6664C25.3351 37.6871 25.3026 37.7081 25.2684 37.7281C25.0703 37.8449 24.8637 37.9462 24.6503 38.031L24.5372 38.0734C24.315 38.155 24.0867 38.2195 23.8544 38.2656C23.8239 38.2718 23.7937 38.2749 23.7633 38.2805C23.2583 38.3742 22.7407 38.3738 22.2354 38.2801C22.2049 38.2746 22.1748 38.2715 22.1443 38.2653C21.912 38.2195 21.6837 38.155 21.4615 38.0727C21.4236 38.0596 21.3856 38.0458 21.349 38.031C21.135 37.9462 20.928 37.8452 20.7296 37.7284L20.631 37.6674C20.4329 37.5448 20.2435 37.4073 20.0657 37.256C20.0461 37.2391 20.0285 37.2205 20.0095 37.2036C19.8273 37.0434 19.6579 36.8683 19.5028 36.6809L19.4937 36.6709C19.3409 36.481 19.2031 36.2791 19.0815 36.0672C19.0656 36.0403 19.049 36.0148 19.0337 35.99C18.9199 35.7839 18.8224 35.5689 18.7418 35.347C18.7272 35.3091 18.7137 35.2698 18.7001 35.2336C18.6232 35.0072 18.5636 34.775 18.5226 34.5389C18.5226 34.5234 18.5182 34.5065 18.5152 34.491L19.2826 34.491ZM38.932 41.4379H34.3799V35.2629C34.3799 34.6489 34.1401 34.0596 33.7133 33.6255C33.2866 33.1914 32.7074 32.9473 32.1039 32.9473H13.8956C13.2921 32.9473 12.7129 33.1913 12.2862 33.6255C11.8595 34.0597 11.6197 34.6489 11.6197 35.2629V41.4379H7.0676V22.4604L22.9998 6.25112L38.932 22.4604L38.932 41.4379ZM42.7253 24.1374L23.5364 4.61476C23.2401 4.31359 22.7598 4.31324 22.4635 4.61441L5.77256 21.5956L3.27439 24.1376L2.07099 22.9132L21.7966 2.84458H24.203L43.9286 22.9132L42.7253 24.1374Z" fill="#7F3E41"/>
<path d="M35.8976 24.0029V29.8584C35.8976 30.2847 36.2373 30.6303 36.6563 30.6303C37.0753 30.6303 37.415 30.2847 37.415 29.8584V23.6835C37.415 23.4788 37.335 23.2824 37.1928 23.1376L34.9168 20.822C34.619 20.5295 34.1459 20.534 33.8532 20.8317C33.5605 21.1294 33.5562 21.6108 33.8437 21.9137L35.8976 24.0029Z" fill="#7F3E41"/>
<path d="M10.3255 21.5936L8.80812 23.1374C8.66587 23.2821 8.58594 23.4785 8.58594 23.6832V27.5425C8.58594 27.9688 8.92565 28.3144 9.34462 28.3144C9.76358 28.3144 10.1033 27.9688 10.1033 27.5425V24.0026L11.3985 22.6849C11.6861 22.382 11.6817 21.9009 11.389 21.6032C11.0964 21.3054 10.6232 21.3011 10.3255 21.5936Z" fill="#7F3E41"/>
<path d="M36.1187 32.4004C35.825 32.7047 35.825 33.192 36.1187 33.4962C36.264 33.6375 36.4563 33.7175 36.6572 33.7202C36.856 33.7185 37.0464 33.6382 37.1883 33.4962C37.3332 33.3519 37.4152 33.1548 37.4159 32.9483C37.4176 32.6348 37.2326 32.3512 36.9481 32.2309C36.6636 32.1107 36.3354 32.1775 36.1187 32.4004Z" fill="#7F3E41"/>
<path d="M8.80619 30.0841C8.59044 30.3053 8.52643 30.6368 8.64429 30.9241C8.76216 31.2119 9.03854 31.3993 9.34471 31.3993C9.65089 31.3993 9.92727 31.2119 10.0451 30.9241C10.163 30.6368 10.099 30.3053 9.88323 30.0841C9.57841 29.8001 9.11103 29.8001 8.80619 30.0841Z" fill="#7F3E41"/>
<path d="M11.8394 20.0489C11.6236 20.2701 11.5596 20.6016 11.6775 20.889C11.7954 21.1767 12.0717 21.3642 12.3779 21.3642C12.6841 21.3642 12.9605 21.1767 13.0783 20.889C13.1962 20.6016 13.1322 20.2701 12.9164 20.0489C12.6116 19.765 12.1442 19.765 11.8394 20.0489Z" fill="#7F3E41"/>
<path d="M9.5639 9.24356C9.42537 9.39139 9.3468 9.58711 9.34375 9.79145C9.3451 9.99613 9.42402 10.1922 9.5639 10.3393C9.86128 10.6422 10.3436 10.6422 10.641 10.3393C10.9387 10.0368 10.9387 9.5461 10.641 9.24354C10.3368 8.95788 9.86806 8.9579 9.5639 9.24356Z" fill="#7F3E41"/>
</svg>
