<svg width="52" height="52" viewBox="0 0 52 52" fill="none" xmlns="http://www.w3.org/2000/svg">
<path d="M15.1938 19.8257H19.8398C21.2912 21.7688 23.5745 22.9132 26 22.9132C28.4256 22.9132 30.7088 21.7688 32.1602 19.8257H36.8063C37.011 19.8257 37.2074 19.7444 37.3521 19.5996C37.4969 19.4549 37.5782 19.2585 37.5782 19.0538V9.01941C37.5782 6.26164 36.1068 3.71374 33.7188 2.33477C31.3305 0.956068 28.388 0.956068 26 2.33512C23.6121 0.95606 20.6696 0.95606 18.2813 2.33477C15.8933 3.71383 14.4219 6.26173 14.4219 9.01941V19.0538C14.4219 19.2585 14.5032 19.4549 14.6479 19.5996C14.7927 19.7444 14.9891 19.8257 15.1938 19.8257ZM26 21.3694C23.846 21.367 21.8491 20.2413 20.7319 18.3991C20.6258 18.2261 20.5293 18.049 20.4418 17.8674C20.4125 17.805 20.3801 17.744 20.3522 17.6806C20.2499 17.4501 20.1617 17.2134 20.0883 16.9722C20.0728 16.9187 20.0614 16.8639 20.0466 16.8102C19.9918 16.6069 19.9473 16.4005 19.9139 16.1924C19.9022 16.1207 19.8901 16.0497 19.8808 15.9777C19.846 15.7179 19.8271 15.4567 19.825 15.1944V10.5632H32.175V15.1944C32.173 15.466 32.1533 15.7368 32.1158 16.0056C32.1065 16.0759 32.0951 16.1451 32.0834 16.2154C32.0451 16.4494 31.9934 16.682 31.9286 16.9105C31.9193 16.9422 31.9131 16.9753 31.9031 17.007C31.8246 17.2561 31.7309 17.4997 31.6216 17.7371C31.5916 17.8043 31.5582 17.8698 31.5258 17.9363C31.4214 18.1486 31.3049 18.3546 31.1771 18.5535C30.0393 20.3081 28.0911 21.368 26 21.3694ZM15.9656 9.01941C15.966 7.52152 16.5104 6.07454 17.4984 4.94848C18.4859 3.82234 19.8495 3.0936 21.3346 2.8982C22.8198 2.70247 24.3253 3.05361 25.571 3.88576C25.8304 4.05944 26.1695 4.05944 26.429 3.88576C27.6747 3.05358 29.1802 2.70245 30.6653 2.8982C32.1505 3.09358 33.514 3.82242 34.5016 4.94848C35.4895 6.07463 36.034 7.52152 36.0343 9.01941V18.2819H33.0757C33.0826 18.264 33.0881 18.2464 33.095 18.2296C33.146 18.1107 33.187 17.9873 33.2325 17.8653C33.278 17.7433 33.3252 17.6338 33.3631 17.5094C33.4079 17.3674 33.4403 17.2206 33.4775 17.0755C33.5037 16.9704 33.5368 16.867 33.5585 16.7613C33.5964 16.58 33.6201 16.3946 33.6443 16.2092C33.6543 16.132 33.6711 16.0617 33.6784 15.9877L33.6777 15.988C33.7049 15.7244 33.7187 15.4594 33.7187 15.1944V9.79128C33.7187 9.5866 33.6374 9.39018 33.4926 9.24545C33.3479 9.10073 33.1515 9.0194 32.9468 9.0194H19.053C18.6268 9.0194 18.2812 9.36503 18.2812 9.79128V15.1944C18.2812 15.4594 18.2949 15.7244 18.3222 15.988C18.329 16.0652 18.3459 16.1348 18.3563 16.2096C18.38 16.395 18.4042 16.58 18.4421 16.7616C18.4638 16.8674 18.4969 16.9708 18.5231 17.0759C18.5592 17.2209 18.5927 17.3677 18.6375 17.5097C18.6754 17.63 18.7239 17.7475 18.7681 17.8657C18.8122 17.9839 18.8546 18.111 18.9055 18.2299C18.9124 18.2468 18.918 18.2647 18.9248 18.2823L15.9655 18.2819L15.9656 9.01941Z" fill="#7F3E41"/>
<path d="M38.3505 26H13.6504C12.6273 26.0014 11.6463 26.4083 10.9226 27.1316C10.1993 27.8552 9.79243 28.8363 9.79102 29.8594V49.9282C9.79102 50.1329 9.87234 50.3293 10.0171 50.474C10.1618 50.6188 10.3582 50.7001 10.5629 50.7001H41.438C41.6427 50.7001 41.8391 50.6188 41.9838 50.474C42.1285 50.3293 42.2099 50.1329 42.2099 49.9282V29.8594C42.2085 28.8363 41.8015 27.8552 41.0783 27.1316C40.3546 26.4083 39.3736 26.0014 38.3505 26ZM32.039 28.0572C32.0111 28.1885 31.9749 28.3173 31.9387 28.4431C31.9218 28.5041 31.9087 28.5658 31.8901 28.6244C31.8316 28.8101 31.7647 28.9924 31.6903 29.1709L31.6803 29.1909C31.6076 29.3614 31.5259 29.5282 31.4394 29.6902C31.4077 29.7487 31.3708 29.8053 31.3374 29.8625C31.275 29.9707 31.2123 30.0785 31.1431 30.1819C31.1 30.2467 31.0521 30.3077 31.0073 30.3711C30.9408 30.4631 30.8753 30.5547 30.8043 30.6426C30.7527 30.7067 30.6972 30.767 30.6431 30.8287C30.5714 30.9104 30.5004 30.9917 30.4246 31.0696C30.366 31.1299 30.3043 31.1877 30.2433 31.2456C30.1662 31.319 30.089 31.3907 30.0073 31.4603C29.9425 31.5158 29.876 31.5692 29.8088 31.6223C29.7254 31.6871 29.6414 31.7505 29.5549 31.8114C29.4846 31.8607 29.4136 31.9093 29.3419 31.9558C29.2523 32.0137 29.162 32.0685 29.0693 32.1219C28.9921 32.1643 28.9205 32.206 28.8447 32.2463C28.7489 32.2966 28.651 32.3421 28.5528 32.3869C28.4756 32.4224 28.3984 32.4579 28.3212 32.4896C28.2179 32.532 28.1121 32.5668 28.0063 32.6054C27.9291 32.6323 27.8519 32.6602 27.7747 32.6826C27.6627 32.7167 27.5431 32.7436 27.4319 32.7704C27.3547 32.7891 27.2775 32.8097 27.2003 32.8252C27.0714 32.8507 26.9394 32.8676 26.8081 32.8855C26.7416 32.8941 26.6762 32.9072 26.609 32.9134C26.4091 32.9327 26.2068 32.9445 26.0015 32.9445C25.7961 32.9445 25.5938 32.9327 25.394 32.9134C25.3268 32.9072 25.2613 32.8941 25.1948 32.8855C25.0635 32.8676 24.9315 32.8507 24.8026 32.8252C24.7255 32.8097 24.6483 32.7891 24.5711 32.7704C24.456 32.7436 24.3395 32.7163 24.2282 32.6826C24.151 32.6588 24.0738 32.6309 23.9967 32.6054C23.8909 32.5682 23.7851 32.532 23.6817 32.4896C23.6045 32.4579 23.5273 32.4224 23.4501 32.3869C23.3523 32.3421 23.2541 32.2966 23.1583 32.2463C23.0811 32.2063 23.0039 32.1646 22.9336 32.1219C22.8409 32.0685 22.7506 32.0137 22.661 31.9558C22.5894 31.9096 22.5184 31.8607 22.4481 31.8114C22.3616 31.7505 22.2775 31.687 22.1941 31.6223C22.1269 31.5689 22.0604 31.5158 21.9956 31.4603C21.9147 31.3907 21.8368 31.319 21.7596 31.2456C21.6986 31.1877 21.6369 31.1299 21.5783 31.0696C21.5011 30.9924 21.4315 30.9107 21.3599 30.8287C21.3058 30.767 21.2503 30.7067 21.1986 30.6426C21.1276 30.5547 21.0621 30.4627 20.9956 30.3711C20.9508 30.3077 20.9029 30.2467 20.8599 30.1819C20.7903 30.0785 20.7279 29.9703 20.6655 29.8625C20.6324 29.8053 20.5952 29.7491 20.5635 29.6902C20.4763 29.5282 20.3954 29.3614 20.3227 29.1909C20.3227 29.184 20.3158 29.1778 20.3127 29.1709C20.2375 28.9924 20.171 28.8101 20.1128 28.6244C20.0942 28.5658 20.0811 28.5041 20.0642 28.4431C20.028 28.3156 19.9915 28.1867 19.9639 28.0572C19.9484 27.9838 19.9384 27.9083 19.9254 27.8332C19.9085 27.7374 19.893 27.6409 19.8806 27.5437H21.435C21.435 27.5599 21.445 27.5754 21.4481 27.5916C21.4901 27.8277 21.5504 28.0599 21.6286 28.2863C21.6424 28.3242 21.6566 28.3635 21.671 28.3997C21.753 28.6216 21.8523 28.8366 21.9681 29.0427C21.9836 29.0706 22.0005 29.0961 22.0167 29.1199C22.1404 29.3318 22.2806 29.5337 22.436 29.7236L22.4453 29.7336C22.6028 29.9214 22.7751 30.0961 22.9608 30.256C22.9801 30.2729 22.998 30.2915 23.018 30.3084C23.1989 30.4596 23.3912 30.5975 23.5928 30.7202L23.6931 30.7812C23.895 30.898 24.1062 30.9993 24.324 31.0837C24.3619 31.0985 24.4012 31.1123 24.4384 31.1254C24.6645 31.2078 24.8967 31.2722 25.1328 31.3184C25.1638 31.3246 25.1944 31.3277 25.2255 31.3332C25.7396 31.4269 26.2661 31.4266 26.7799 31.3328C26.8109 31.3273 26.8416 31.3242 26.8726 31.318C27.109 31.2718 27.3412 31.2078 27.5673 31.1254C27.6059 31.1123 27.6445 31.0985 27.6817 31.0837C27.8995 30.9993 28.11 30.898 28.3123 30.7812L28.4125 30.7202C28.6145 30.5975 28.8068 30.46 28.9877 30.3087C29.0076 30.2918 29.0256 30.2732 29.0449 30.2563C29.2303 30.0965 29.4029 29.9214 29.5604 29.7336L29.5697 29.7236C29.7251 29.5337 29.865 29.3318 29.9887 29.1199C30.0049 29.093 30.0218 29.0675 30.0373 29.0427C30.1531 28.8366 30.2526 28.6216 30.3347 28.3997C30.3495 28.3618 30.3633 28.3225 30.377 28.2863C30.4553 28.0599 30.5156 27.8277 30.5576 27.5916C30.5576 27.5754 30.5676 27.5599 30.5707 27.5437H32.1251C32.1127 27.6409 32.0972 27.7374 32.0803 27.8332C32.0641 27.908 32.0542 27.9838 32.039 28.0572ZM28.8812 27.8525C28.8633 27.8987 28.8519 27.9476 28.8326 27.992C28.7592 28.1623 28.6706 28.3252 28.5676 28.4793C28.5452 28.5124 28.5173 28.541 28.4942 28.5734C28.4101 28.6909 28.3181 28.8022 28.2189 28.9069C28.1741 28.9531 28.1248 28.9941 28.0769 29.0382C27.989 29.1206 27.8967 29.1981 27.7995 29.2698C27.7423 29.3115 27.6837 29.3469 27.6245 29.3862C27.5249 29.4483 27.4218 29.5044 27.3157 29.5544C27.2533 29.5844 27.1899 29.6154 27.1241 29.6409C27.0049 29.6864 26.8826 29.7243 26.7585 29.7542C26.6992 29.7698 26.642 29.7891 26.581 29.8004C26.1992 29.8786 25.805 29.879 25.4229 29.8008C25.3619 29.7891 25.3047 29.7698 25.2454 29.7546C25.1214 29.7246 24.999 29.6864 24.8798 29.6409C24.8144 29.6154 24.7509 29.5844 24.6882 29.5544C24.5821 29.5044 24.4791 29.4483 24.3795 29.3862C24.3202 29.349 24.2613 29.309 24.2044 29.2698C24.1072 29.1981 24.0149 29.1206 23.927 29.0382C23.8791 28.9941 23.8299 28.9534 23.7851 28.9069C23.6858 28.8022 23.5938 28.6909 23.5097 28.5734C23.4866 28.541 23.4587 28.5124 23.4363 28.4793C23.3333 28.3252 23.2447 28.1623 23.1713 27.992C23.1521 27.9472 23.1403 27.8987 23.1228 27.8525C23.0849 27.7515 23.0525 27.6485 23.0256 27.5437H28.9815C28.9536 27.6485 28.9201 27.7515 28.8812 27.8525ZM40.6658 49.1563H37.5782V43.2204C38.082 42.4637 38.3505 41.5747 38.3501 40.6656C38.3501 40.2394 38.0045 39.8938 37.5782 39.8938C37.152 39.8938 36.8064 40.2394 36.8064 40.6656C36.8064 41.4844 36.4811 42.2697 35.9022 42.8489C35.3229 43.4279 34.5376 43.7532 33.7189 43.7532C33.2926 43.7532 32.947 44.0988 32.947 44.525C32.947 44.9513 33.2926 45.2969 33.7189 45.2969C34.5324 45.2966 35.3315 45.0805 36.0345 44.6708V49.1563H17.5094V44.6708C18.2124 45.0805 19.0115 45.2966 19.8251 45.2969C20.2513 45.2969 20.5969 44.9513 20.5969 44.525C20.5969 44.0988 20.2513 43.7532 19.8251 43.7532C19.0063 43.7532 18.221 43.4279 17.6418 42.8489C17.0628 42.2697 16.7376 41.4844 16.7376 40.6656C16.7376 40.2394 16.3919 39.8938 15.9657 39.8938C15.5394 39.8938 15.1938 40.2394 15.1938 40.6656C15.1935 41.5747 15.4619 42.4637 15.9657 43.2204V49.1563H11.3344V29.8594C11.3344 29.2453 11.5784 28.656 12.0126 28.2219C12.4467 27.7878 13.036 27.5438 13.65 27.5438H18.3199V27.5507C18.3268 27.613 18.3399 27.674 18.3478 27.7374C18.3709 27.9242 18.3957 28.111 18.4326 28.2933C18.4519 28.3897 18.4798 28.4824 18.5022 28.5765C18.5377 28.7223 18.5718 28.8691 18.6149 29.011C18.6459 29.1137 18.6845 29.2116 18.7189 29.3129C18.7644 29.4425 18.8092 29.5737 18.8609 29.6988C18.9033 29.8008 18.9519 29.8994 18.9984 29.999C19.0539 30.1192 19.1087 30.2398 19.1707 30.357C19.2231 30.4549 19.2803 30.5506 19.3368 30.6471C19.4023 30.7591 19.4681 30.8711 19.5384 30.979C19.6001 31.073 19.6659 31.1644 19.7313 31.2553C19.8085 31.3594 19.8812 31.4631 19.9629 31.5641C20.0446 31.665 20.1066 31.7384 20.1807 31.8236C20.2641 31.92 20.3488 32.0141 20.4378 32.1061C20.5267 32.1981 20.5921 32.2667 20.6769 32.3446C20.7617 32.4224 20.8637 32.5182 20.9601 32.6023C21.0449 32.6757 21.1307 32.7474 21.2186 32.817C21.3195 32.8942 21.4222 32.9714 21.5273 33.0486C21.6176 33.1133 21.7096 33.1774 21.803 33.2384C21.9119 33.3094 22.0239 33.3759 22.1366 33.4414C22.2324 33.4969 22.3282 33.5534 22.4267 33.6058C22.5439 33.6668 22.6645 33.7222 22.7858 33.7787C22.8847 33.8242 22.9832 33.8714 23.0845 33.9131C23.212 33.9655 23.343 34.0103 23.4705 34.0558C23.5707 34.0906 23.6696 34.1285 23.7723 34.1592C23.9112 34.2009 24.0542 34.2364 24.1969 34.2681C24.2947 34.2918 24.3912 34.3198 24.4908 34.3397C24.6514 34.3714 24.8157 34.3921 24.9801 34.4169C25.0649 34.4286 25.1483 34.4455 25.2341 34.4541C25.4856 34.479 25.7413 34.4927 25.9991 34.4927C26.2568 34.4927 26.5125 34.479 26.764 34.4541C26.8498 34.4455 26.9332 34.4286 27.018 34.4169C27.1824 34.3952 27.3467 34.3745 27.5073 34.3397C27.6069 34.3198 27.7034 34.2918 27.8013 34.2681C27.9439 34.234 28.0869 34.2009 28.2258 34.1592C28.3285 34.1282 28.4274 34.0906 28.5276 34.0558C28.6582 34.0103 28.7892 33.9655 28.9136 33.9131C29.0145 33.8714 29.1134 33.8242 29.2123 33.7787C29.3336 33.7222 29.4539 33.6668 29.5714 33.6058C29.6703 33.5534 29.7657 33.4969 29.8615 33.4414C29.9742 33.3759 30.0862 33.3094 30.1951 33.2384C30.2885 33.1774 30.3805 33.1133 30.4708 33.0486C30.5759 32.9714 30.6786 32.8942 30.7795 32.817C30.8674 32.7474 30.9532 32.6757 31.038 32.6023C31.1348 32.5179 31.2292 32.4321 31.3212 32.3446C31.4029 32.2674 31.4825 32.1902 31.5604 32.1061C31.6382 32.022 31.734 31.92 31.8174 31.8236C31.8946 31.7388 31.9642 31.653 32.0352 31.5641C32.1062 31.4752 32.1896 31.3611 32.2668 31.2553C32.3322 31.1644 32.3981 31.073 32.4597 30.979C32.53 30.8708 32.5955 30.7591 32.6613 30.6471C32.7178 30.5506 32.7747 30.4549 32.8274 30.357C32.8891 30.2398 32.9439 30.1192 32.9997 29.999C33.0459 29.8994 33.0948 29.8005 33.1372 29.6988C33.1889 29.5713 33.2337 29.4404 33.2792 29.3129C33.314 29.2119 33.3526 29.1137 33.3832 29.011C33.4263 28.8691 33.4604 28.7223 33.4959 28.5765C33.5183 28.4824 33.5462 28.3897 33.5655 28.2933C33.6027 28.111 33.6272 27.9242 33.6503 27.7374C33.6579 27.674 33.671 27.613 33.6782 27.5507L33.6772 27.5438H38.3502C38.9642 27.5438 39.5535 27.7877 39.9876 28.2219C40.4217 28.6561 40.6657 29.2454 40.6657 29.8594L40.6658 49.1563Z" fill="#7F3E41"/>
<path d="M47.2274 17.5098C46.5399 17.5077 45.8676 17.7121 45.2977 18.0963C44.7277 17.712 44.0554 17.5077 43.368 17.5098C42.4472 17.5108 41.5641 17.8771 40.9131 18.5284C40.2619 19.1793 39.8956 20.0625 39.8945 20.9832C39.8945 24.0707 44.4348 26.4319 44.9528 26.6951C45.1698 26.8037 45.4255 26.8037 45.6426 26.6951C46.1605 26.4319 50.7008 24.0707 50.7008 20.9832C50.6998 20.0624 50.3335 19.1793 49.6822 18.5284C49.0313 17.8771 48.1481 17.5108 47.2274 17.5098ZM45.2977 25.1275C43.9669 24.3888 41.4383 22.6438 41.4383 20.9832C41.4393 20.4698 41.645 19.9778 42.01 19.6166C42.3745 19.2551 42.8683 19.0539 43.3821 19.0577C43.8956 19.0615 44.3863 19.2696 44.7457 19.6363C45.0537 19.9333 45.5417 19.9333 45.8498 19.6363C46.2092 19.2696 46.6999 19.0615 47.2133 19.0577C47.7271 19.0539 48.2209 19.2551 48.5855 19.6166C48.9504 19.9777 49.1561 20.4698 49.1571 20.9832C49.1571 22.6434 46.6285 24.3888 45.2977 25.1275Z" fill="#7F3E41"/>
<path d="M6.7039 26.7723C6.82348 26.7737 6.94133 26.7472 7.04884 26.6951C7.56676 26.4319 12.1071 24.0707 12.1071 20.9832C12.106 20.0624 11.7397 19.1793 11.0885 18.5284C10.4375 17.8771 9.55431 17.5108 8.63362 17.5098C7.94616 17.5077 7.27388 17.7121 6.70392 18.0963C6.13398 17.712 5.46168 17.5077 4.77423 17.5098C3.85345 17.5108 2.97033 17.8771 2.31939 18.5284C1.66812 19.1793 1.30184 20.0625 1.30078 20.9832C1.30078 24.0707 5.8411 26.4319 6.359 26.6951C6.46652 26.7472 6.58433 26.7737 6.7039 26.7723ZM2.84452 20.9832C2.84555 20.4698 3.05128 19.9778 3.41619 19.6166C3.78077 19.2551 4.27456 19.0539 4.78837 19.0577C5.3018 19.0615 5.79252 19.2696 6.1519 19.6363C6.45996 19.9333 6.9479 19.9333 7.256 19.6363C7.6154 19.2696 8.10609 19.0615 8.61953 19.0577C9.13331 19.0539 9.62711 19.2551 9.9917 19.6166C10.3566 19.9777 10.5623 20.4698 10.5634 20.9832C10.5634 22.6434 8.0348 24.3888 6.70399 25.1275C5.37319 24.3888 2.84452 22.6434 2.84452 20.9832Z" fill="#7F3E41"/>
<path d="M45.2973 28.3164C44.871 28.3164 44.5254 28.662 44.5254 29.0883V32.1758C44.5254 32.602 44.871 32.9477 45.2973 32.9477C45.7235 32.9477 46.0691 32.602 46.0691 32.1758V29.0883C46.0691 28.8836 45.9878 28.6872 45.8431 28.5425C45.6984 28.3977 45.502 28.3164 45.2973 28.3164Z" fill="#7F3E41"/>
<path d="M45.2973 37.5781C44.871 37.5781 44.5254 37.9238 44.5254 38.35V39.8938C44.5254 40.32 44.871 40.6656 45.2973 40.6656C45.7235 40.6656 46.0691 40.32 46.0691 39.8938V38.35C46.0691 38.1453 45.9878 37.9489 45.8431 37.8042C45.6984 37.6595 45.502 37.5781 45.2973 37.5781Z" fill="#7F3E41"/>
<path d="M44.7495 34.7149C44.53 34.9361 44.4648 35.2676 44.5848 35.555C44.7047 35.8427 44.9859 36.0302 45.2974 36.0302C45.6089 36.0302 45.8901 35.8427 46.01 35.555C46.1299 35.2676 46.0648 34.9361 45.8453 34.7149C45.5351 34.431 45.0596 34.431 44.7495 34.7149Z" fill="#7F3E41"/>
<path d="M44.7495 42.4337C44.53 42.6549 44.4648 42.9864 44.5848 43.2738C44.7047 43.5615 44.9859 43.7489 45.2974 43.7489C45.6089 43.7489 45.8901 43.5615 46.01 43.2738C46.1299 42.9864 46.0648 42.6549 45.8453 42.4337C45.5351 42.1497 45.0596 42.1497 44.7495 42.4337Z" fill="#7F3E41"/>
<path d="M6.70352 28.3164C6.27727 28.3164 5.93164 28.662 5.93164 29.0883V32.1758C5.93164 32.602 6.27727 32.9477 6.70352 32.9477C7.12977 32.9477 7.4754 32.602 7.4754 32.1758V29.0883C7.4754 28.8836 7.39407 28.6872 7.24935 28.5425C7.10462 28.3977 6.9082 28.3164 6.70352 28.3164Z" fill="#7F3E41"/>
<path d="M6.70352 37.5781C6.27727 37.5781 5.93164 37.9238 5.93164 38.35V39.8938C5.93164 40.32 6.27727 40.6656 6.70352 40.6656C7.12977 40.6656 7.4754 40.32 7.4754 39.8938V38.35C7.4754 38.1453 7.39407 37.9489 7.24935 37.8042C7.10462 37.6595 6.9082 37.5781 6.70352 37.5781Z" fill="#7F3E41"/>
<path d="M6.1549 34.7154C5.85201 35.018 5.85201 35.5087 6.1549 35.8112C6.45745 36.1141 6.94815 36.1141 7.25071 35.8112C7.5536 35.5087 7.5536 35.018 7.25071 34.7154C6.94816 34.4126 6.45746 34.4126 6.1549 34.7154Z" fill="#7F3E41"/>
<path d="M6.15632 42.4342C5.93337 42.6548 5.86651 42.9887 5.98678 43.2781C6.10704 43.5676 6.39063 43.7557 6.70421 43.754C6.90889 43.7526 7.10497 43.6723 7.2521 43.53C7.55499 43.2275 7.55499 42.7368 7.2521 42.4342C6.94955 42.1313 6.45887 42.1313 6.15632 42.4342Z" fill="#7F3E41"/>
</svg>
