<svg width="1659" height="255" viewBox="0 0 1659 255" fill="none" xmlns="http://www.w3.org/2000/svg">
<g opacity="0.5">
<path fill-rule="evenodd" clip-rule="evenodd" d="M1415.35 249.121V5.11523H1533.19C1555.15 5.11523 1574.63 8.69647 1591.36 16.2282C1608.27 23.7525 1621.68 34.7537 1631.15 49.3156C1640.69 63.7594 1645.27 80.6637 1645.27 99.5973C1645.27 118.546 1640.69 135.462 1631.13 149.913L1631.09 149.979C1624.83 159.292 1616.86 167.089 1607.34 173.406L1659 249.121H1554.11L1516.12 192.799H1510.87V249.121H1415.35ZM1500.87 182.799H1521.44L1559.43 239.12H1640.07L1593.03 170.18C1596.08 168.63 1598.97 166.952 1601.7 165.145C1610.27 159.486 1617.3 152.57 1622.79 144.398C1631.11 131.811 1635.27 116.878 1635.27 99.5973C1635.27 82.317 1631.11 67.3833 1622.79 54.7963C1614.47 41.9961 1602.63 32.1825 1587.27 25.3557C1572.12 18.5289 1554.1 15.1155 1533.19 15.1155H1425.35V239.12H1500.87V182.799ZM1500.87 73.3568V125.838H1528.39C1538.84 125.838 1546.52 123.491 1551.43 118.798C1556.55 114.104 1559.11 107.704 1559.11 99.5973C1559.11 91.4905 1556.55 85.0903 1551.43 80.3969C1546.52 75.7035 1538.84 73.3568 1528.39 73.3568H1500.87ZM1510.87 115.838H1528.39C1537.62 115.838 1542.26 113.73 1544.52 111.571L1544.59 111.498L1544.67 111.426C1547.37 108.948 1549.11 105.414 1549.11 99.5973C1549.11 93.7806 1547.37 90.247 1544.67 87.7686L1544.59 87.6969L1544.52 87.6235C1542.26 85.4643 1537.62 83.357 1528.39 83.357H1510.87V115.838Z" fill="#DADADA"/>
<path fill-rule="evenodd" clip-rule="evenodd" d="M1252.28 98.3173H1347V152.719H1252.28V182.159H1364.28V239.12H1178.03V15.1155H1360.12V72.0767H1252.28V98.3173ZM1262.28 82.077H1370.12V5.11523H1168.03V249.121H1374.28V172.159H1262.28V162.719H1357V88.3171H1262.28V82.077Z" fill="#DADADA"/>
<path fill-rule="evenodd" clip-rule="evenodd" d="M1024.11 5.11523H1119.63V249.121H1024.11V166.559H974.35V249.121H878.828V5.11523H974.35V84.477H1024.11V5.11523ZM1034.11 94.4772H964.35V15.1155H888.828V239.12H964.35V156.559H1034.11V239.12H1109.63V15.1155H1034.11V94.4772Z" fill="#DADADA"/>
<path fill-rule="evenodd" clip-rule="evenodd" d="M686.084 249.121V83.677H620.482V5.11523H847.208V83.677H781.606V249.121H686.084ZM771.606 73.6768H837.207V15.1155H630.483V73.6768H696.084V239.12H771.606V73.6768Z" fill="#DADADA"/>
<path fill-rule="evenodd" clip-rule="evenodd" d="M410.74 244.984L410.698 244.969C394.205 238.784 379.739 230.017 367.419 218.628L367.345 218.559C355.074 206.982 345.454 193.416 338.521 177.931L338.469 177.816C331.697 162.169 328.367 145.23 328.367 127.123C328.367 108.823 331.69 91.8599 338.492 76.379L338.52 76.3149C345.456 60.8265 355.085 47.3512 367.382 35.9726C379.701 24.3602 394.179 15.4715 410.698 9.27691L410.74 9.26108C427.522 3.05411 445.562 0 464.77 0C484.175 0 502.235 3.04887 518.843 9.27692C535.362 15.4715 549.839 24.3602 562.158 35.9726C574.459 47.3546 583.99 60.8406 590.714 76.3459C597.738 91.8327 601.173 108.81 601.173 127.123C601.173 145.255 597.727 162.216 590.725 177.875C584.001 193.388 574.476 206.973 562.195 218.559L562.121 218.628C549.802 230.017 535.336 238.784 518.843 244.969C502.247 251.192 484.297 254.246 465.09 254.246C445.683 254.246 427.535 251.196 410.74 244.984ZM581.573 173.844C587.973 159.55 591.173 143.977 591.173 127.123C591.173 110.056 587.973 94.4821 581.573 80.4018C575.386 66.1081 566.639 53.7345 555.332 43.2809C544.025 32.614 530.692 24.4005 515.331 18.6404C499.971 12.8803 483.117 10.0002 464.77 10.0002C446.636 10.0002 429.783 12.8803 414.209 18.6404C398.849 24.4005 385.515 32.614 374.208 43.2809C362.901 53.7345 354.048 66.1081 347.648 80.4018C341.461 94.4821 338.367 110.056 338.367 127.123C338.367 143.977 341.461 159.55 347.648 173.844C354.048 188.137 362.901 200.618 374.208 211.285C385.515 221.738 398.849 229.845 414.209 235.605C429.783 241.365 446.743 244.245 465.09 244.245C483.224 244.245 499.971 241.365 515.331 235.605C530.692 229.845 544.025 221.738 555.332 211.285C566.639 200.618 575.386 188.137 581.573 173.844Z" fill="#DADADA"/>
<path fill-rule="evenodd" clip-rule="evenodd" d="M0 249.121V5.11523H77.6825L145.003 114.991L210.399 5.11523H288.138L288.835 249.121H200.058L199.653 173.026L166.414 228.96H121.876L88.802 175.599V249.121H0ZM78.8018 140.482L127.443 218.96H160.724L209.461 136.945L210.005 239.12H278.806L278.166 15.1155H216.085L145.127 134.335L72.0816 15.1155H10.0002V239.12H78.8018V140.482Z" fill="#DADADA"/>
</g>
</svg>
