<svg width="46" height="50" viewBox="0 0 46 50" fill="none" xmlns="http://www.w3.org/2000/svg">
<path d="M9.41769 41.3262C8.82732 41.3262 8.26076 41.5607 7.8434 41.9782C7.42604 42.3956 7.19141 42.9622 7.19141 43.5525C7.19141 44.1428 7.42596 44.7094 7.8434 45.1268C8.26084 45.5441 8.8274 45.7788 9.41769 45.7788C10.008 45.7788 10.5746 45.5442 10.992 45.1268C11.4093 44.7093 11.644 44.1428 11.644 43.5525C11.644 42.9622 11.4094 42.3955 10.992 41.9782C10.5745 41.5608 10.008 41.3262 9.41769 41.3262ZM9.41769 44.2946C9.11753 44.2946 8.84686 44.1137 8.73224 43.8364C8.61728 43.5591 8.68056 43.2401 8.89292 43.0277C9.10528 42.8154 9.42432 42.7521 9.70162 42.867C9.97892 42.9817 10.1598 43.2523 10.1598 43.5525C10.1598 43.7493 10.0816 43.9381 9.94247 44.0773C9.80333 44.2164 9.61448 44.2946 9.41769 44.2946Z" fill="#7F3E41"/>
<path d="M34.6501 45.7788C35.2405 45.7788 35.807 45.5442 36.2244 45.1268C36.6418 44.7093 36.8764 44.1428 36.8764 43.5525C36.8764 42.9622 36.6418 42.3955 36.2244 41.9782C35.807 41.5608 35.2404 41.3262 34.6501 41.3262C34.0598 41.3262 33.4932 41.5607 33.0758 41.9782C32.6585 42.3956 32.4238 42.9622 32.4238 43.5525C32.4238 44.1428 32.6584 44.7094 33.0758 45.1268C33.4933 45.5441 34.0598 45.7788 34.6501 45.7788ZM34.6501 42.8103C34.9503 42.8103 35.2209 42.9912 35.3356 43.2685C35.4505 43.5458 35.3873 43.8648 35.1749 44.0772C34.9625 44.2896 34.6435 44.3528 34.3662 44.2379C34.0889 44.1232 33.908 43.8526 33.908 43.5524C33.908 43.1426 34.2403 42.8103 34.6501 42.8103Z" fill="#7F3E41"/>
<path d="M13.3443 10.374C13.2071 10.5151 13.1302 10.7039 13.1289 10.9007C13.1289 11.3105 13.4612 11.6428 13.871 11.6428C14.2808 11.6428 14.6131 11.3105 14.6131 10.9007C14.6118 10.7039 14.5349 10.5151 14.3978 10.374C14.1003 10.0993 13.6418 10.0993 13.3443 10.374Z" fill="#7F3E41"/>
<path d="M45.0411 19.063H42.0727C41.7901 19.0614 41.531 19.2207 41.4048 19.4735L40.13 22.0315H39.2676C39.6565 21.6051 39.8639 21.0436 39.8454 20.4664C39.8268 19.8896 39.584 19.3426 39.1685 18.9417C38.7528 18.5412 38.1972 18.3182 37.62 18.3209H25.0042V3.47868C25.0068 2.7528 24.6546 2.07164 24.0613 1.65419C23.4676 1.23675 22.7073 1.1357 22.0251 1.38352C21.3433 1.63133 20.8252 2.19719 20.6383 2.89819C16.8376 3.38254 13.3311 5.19703 10.7406 8.0201C8.1502 10.8434 6.64316 14.4927 6.48643 18.3206H6.45164C5.7463 18.3186 5.08175 18.6519 4.66167 19.2184C4.24159 19.7849 4.11569 20.5174 4.32242 21.192C4.52915 21.8662 5.04399 22.4023 5.70953 22.6361V29.4522C5.71152 31.223 6.41586 32.9207 7.66785 34.1729C8.9202 35.4249 10.6177 36.1292 12.3885 36.1312H15.792L12.5267 39.3965C11.3032 38.4808 9.73813 38.1502 8.2489 38.4928C6.75943 38.8353 5.49648 39.8166 4.7961 41.175C4.09573 42.5336 4.02947 44.1314 4.61422 45.5435C5.19929 46.9554 6.37603 48.0382 7.83184 48.5033C9.28756 48.9687 10.8745 48.7693 12.1698 47.9583C13.4652 47.1476 14.3378 45.8072 14.5555 44.2945H29.5165C29.7335 45.7916 30.5922 47.1197 31.8683 47.9322C33.1445 48.7445 34.7112 48.9602 36.1597 48.5229C37.6078 48.0856 38.7935 47.0386 39.4064 45.6554C40.0196 44.2726 39.9997 42.691 39.3514 41.3241C38.7034 39.9575 37.4914 38.9407 36.0324 38.5405C34.5737 38.14 33.0129 38.3954 31.7577 39.2399L28.6511 36.1313H31.6835C33.4543 36.1293 35.1519 35.425 36.4041 34.173C37.6561 32.9207 38.3604 31.2231 38.3625 29.4523V23.5155H40.5888C40.8697 23.5155 41.1265 23.3564 41.2524 23.105L42.5315 20.547H45.0415C45.4513 20.547 45.7836 20.2147 45.7836 19.8049C45.7836 19.3951 45.4509 19.063 45.0411 19.063ZM22.0357 3.47872C22.0357 3.06891 22.368 2.73661 22.7778 2.73661C23.1876 2.73661 23.5199 3.06891 23.5199 3.47872V18.3209H22.0357V3.47872ZM20.5515 4.39079V16.5292L16.2525 12.2302C15.9613 11.9489 15.4985 11.9529 15.2122 12.2391C14.9259 12.5254 14.9217 12.9882 15.2029 13.2794L20.2443 18.3205H7.95323C8.10994 14.8972 9.45238 11.6353 11.7509 9.09378C14.0497 6.55203 17.1611 4.88941 20.5515 4.39079ZM6.4514 19.8055H37.62C38.0298 19.8055 38.3621 20.1378 38.3621 20.5476C38.3621 20.9574 38.0298 21.2897 37.62 21.2897H6.4514C6.04159 21.2897 5.70929 20.9574 5.70929 20.5476C5.70929 20.1378 6.04159 19.8055 6.4514 19.8055ZM9.41984 47.2636C8.43585 47.2636 7.49205 46.8726 6.79591 46.1769C6.10019 45.4809 5.70929 44.537 5.70929 43.553C5.70929 42.569 6.10023 41.6252 6.79591 40.9291C7.49197 40.2334 8.43585 39.8425 9.41984 39.8425C10.4038 39.8425 11.3476 40.2334 12.0438 40.9291C12.7395 41.6251 13.1304 42.569 13.1304 43.553C13.1291 44.5367 12.7378 45.4799 12.0424 46.1756C11.3467 46.871 10.4035 47.2622 9.41984 47.2636ZM38.3621 43.553C38.3621 44.537 37.9712 45.4808 37.2755 46.1769C36.5795 46.8727 35.6356 47.2636 34.6516 47.2636C33.6676 47.2636 32.7238 46.8726 32.0277 46.1769C31.3319 45.4809 30.941 44.537 30.941 43.553C30.941 42.569 31.332 41.6252 32.0277 40.9291C32.7237 40.2334 33.6676 39.8425 34.6516 39.8425C35.6352 39.8438 36.5784 40.235 37.2742 40.9304C37.9696 41.6262 38.3608 42.5694 38.3621 43.553ZM30.6567 40.2364C30.0458 40.9726 29.651 41.8638 29.5161 42.8109H14.5552C14.4319 41.9535 14.095 41.1405 13.5755 40.4474L17.89 36.1319H26.5519L30.6567 40.2364ZM31.6831 34.6477H12.3883C11.0111 34.646 9.69048 34.0984 8.71683 33.1244C7.74285 32.1507 7.19521 30.8301 7.19351 29.4529V25.7424H15.3567C15.7665 25.7424 16.0988 25.4101 16.0988 25.0003C16.0988 24.5904 15.7665 24.2581 15.3567 24.2581H7.19351V22.7739H36.8779V28.7108H33.1674C32.7576 28.7108 32.4253 29.0431 32.4253 29.4529C32.4253 29.8627 32.7576 30.195 33.1674 30.195H36.8186C36.6404 31.4304 36.0232 32.5602 35.0803 33.3778C34.1371 34.1954 32.9312 34.6463 31.6831 34.6477Z" fill="#7F3E41"/>
<path d="M30.199 28.7109H28.7148C28.305 28.7109 27.9727 29.0432 27.9727 29.453C27.9727 29.8629 28.305 30.1952 28.7148 30.1952H30.199C30.6088 30.1952 30.9411 29.8629 30.9411 29.453C30.9411 29.0432 30.6088 28.7109 30.199 28.7109Z" fill="#7F3E41"/>
<path d="M17.7975 24.4746C17.5102 24.7671 17.5102 25.2356 17.7975 25.5282C18.09 25.8154 18.5585 25.8154 18.851 25.5282C18.9878 25.3867 19.065 25.1982 19.0663 25.0014C19.0667 24.8066 18.9892 24.6194 18.851 24.4819C18.5568 24.2016 18.0953 24.1983 17.7975 24.4746Z" fill="#7F3E41"/>
<path d="M20.7662 24.4746C20.479 24.7671 20.479 25.2356 20.7662 25.5282C21.0587 25.8154 21.5272 25.8154 21.8197 25.5282C21.9566 25.3867 22.0338 25.1982 22.0351 25.0014C22.0354 24.8066 21.9579 24.6194 21.8197 24.4819C21.5256 24.2016 21.0641 24.1983 20.7662 24.4746Z" fill="#7F3E41"/>
</svg>
