<svg width="32" height="50" viewBox="0 0 32 50" fill="none" xmlns="http://www.w3.org/2000/svg">
<path d="M25.1641 31.5684C24.7542 31.5684 24.4219 31.9075 24.4219 32.3257V45.2004H20.7109C20.3011 45.2004 19.9688 45.5395 19.9688 45.9577C19.9688 46.3759 20.3011 46.715 20.7109 46.715H24.4219C24.8155 46.715 25.1932 46.5554 25.4715 46.2715C25.7499 45.9875 25.9062 45.602 25.9062 45.2004V32.3257C25.9062 32.1249 25.828 31.9321 25.6889 31.7902C25.5497 31.6482 25.3609 31.5684 25.1641 31.5684Z" fill="#7F3E41"/>
<path d="M14.7734 15.6656C14.9702 15.6656 15.1591 15.5858 15.2983 15.4438C15.4374 15.3018 15.5156 15.1091 15.5156 14.9082V13.3936H16.2578C16.6677 13.3936 17 13.0545 17 12.6362C17 12.218 16.6677 11.8789 16.2578 11.8789H14.7734C14.3636 11.8789 14.0312 12.218 14.0312 12.6362V14.9082C14.0312 15.1091 14.1094 15.3018 14.2486 15.4438C14.3878 15.5858 14.5766 15.6656 14.7734 15.6656Z" fill="#7F3E41"/>
<path d="M16.6683 29.2213C16.8771 29.3278 17.1229 29.3278 17.3316 29.2213C17.8296 28.963 22.1953 26.6463 22.1953 23.617C22.1943 22.7136 21.8421 21.8471 21.2159 21.2084C20.59 20.5694 19.7407 20.21 18.8555 20.209C18.1945 20.207 17.548 20.4075 17 20.7844C16.452 20.4075 15.8055 20.207 15.1445 20.209C14.2592 20.21 13.41 20.5694 12.7841 21.2084C12.1579 21.8471 11.8057 22.7137 11.8047 23.617C11.8047 26.6463 16.1703 28.963 16.6683 29.2213ZM15.1445 21.7237C15.6438 21.723 16.1219 21.9292 16.4692 22.2954C16.7654 22.5868 17.2345 22.5868 17.5308 22.2954C17.8764 21.9357 18.3482 21.7314 18.8419 21.7277C19.3359 21.724 19.8107 21.9215 20.1613 22.2761C20.5121 22.6304 20.71 23.1132 20.7109 23.617C20.7109 25.2459 18.2796 26.9583 17 27.6823C15.7204 26.9584 13.2891 25.246 13.2891 23.617C13.2891 23.1149 13.4846 22.6331 13.8325 22.2781C14.1804 21.9231 14.6525 21.7237 15.1445 21.7237Z" fill="#7F3E41"/>
<path d="M22.9375 38.3844V32.3257C22.9375 32.1249 22.8593 31.9321 22.7201 31.7902C22.581 31.6482 22.3921 31.5684 22.1953 31.5684H11.8047C11.3948 31.5684 11.0625 31.9075 11.0625 32.3257V38.3844C11.0625 38.9868 11.2971 39.565 11.7146 39.9909C12.132 40.4169 12.6987 40.6563 13.289 40.6563H20.7109C21.3013 40.6563 21.8679 40.417 22.2853 39.9909C22.7028 39.5649 22.9375 38.9868 22.9375 38.3844ZM12.5469 33.083H21.4531V33.8404H12.5469V33.083ZM12.5469 38.3844V35.355H21.4531V38.3844C21.4531 38.5852 21.3749 38.7779 21.2358 38.9199C21.0966 39.0619 20.9077 39.1417 20.7109 39.1417H13.2891C12.8792 39.1417 12.5469 38.8026 12.5469 38.3844Z" fill="#7F3E41"/>
<path d="M19.2264 13.3921C19.5763 13.3884 19.8751 13.1338 19.9408 12.7832C20.0064 12.4326 19.8208 12.0833 19.4968 11.9484C19.1731 11.8132 18.801 11.9302 18.6072 12.2274C18.4137 12.5246 18.4521 12.9201 18.6996 13.1723C18.8417 13.3106 19.0299 13.3891 19.2264 13.3921Z" fill="#7F3E41"/>
<path d="M25.1641 26.2676C24.7542 26.2676 24.4219 26.6067 24.4219 27.0249V29.2969C24.4219 29.7151 24.7542 30.0542 25.1641 30.0542C25.5739 30.0542 25.9062 29.7151 25.9062 29.2969V27.0249C25.9062 26.8241 25.8281 26.6314 25.6889 26.4894C25.5497 26.3474 25.3609 26.2676 25.1641 26.2676Z" fill="#7F3E41"/>
<path d="M24.6373 23.4589C24.4263 23.676 24.3637 24.0012 24.479 24.2832C24.5943 24.5655 24.8646 24.7495 25.1642 24.7495C25.4637 24.7495 25.7341 24.5655 25.8494 24.2832C25.9647 24.0012 25.902 23.676 25.691 23.4589C25.3928 23.1804 24.9356 23.1804 24.6373 23.4589Z" fill="#7F3E41"/>
<path d="M31.1016 26.2674H28.875V22.4808C28.875 22.2799 28.7968 22.0872 28.6577 21.9452L22.9375 16.1086V11.1207C22.9355 10.6524 22.792 10.1963 22.5263 9.81464C22.2606 9.43292 21.8858 9.14419 21.4531 8.98799V5.06206C21.4518 4.05822 21.0605 3.09567 20.365 2.38569C19.6692 1.67602 18.726 1.27678 17.7422 1.27539H16.2578C15.2741 1.27674 14.3308 1.67603 13.635 2.38569C12.9395 3.09568 12.5482 4.05822 12.5469 5.06206V8.98799C12.1142 9.14419 11.7394 9.43292 11.4737 9.81464C11.208 10.1963 11.0645 10.6524 11.0625 11.1207V16.1086L5.34235 21.9456C5.2032 22.0876 5.125 22.2799 5.125 22.4808V26.2674H2.89844C2.48858 26.2674 2.15625 26.6066 2.15625 27.0248C2.15625 27.443 2.48858 27.7821 2.89844 27.7821H5.125V45.2008C5.12632 46.4054 5.59582 47.5607 6.43048 48.4127C7.26545 49.2643 8.39758 49.7434 9.57812 49.7448H24.4219C25.6024 49.7434 26.7346 49.2644 27.5695 48.4127C28.4041 47.5606 28.8736 46.4054 28.875 45.2008V27.7821H31.1015C31.5114 27.7821 31.8437 27.443 31.8437 27.0248C31.8437 26.6066 31.5114 26.2674 31.1016 26.2674ZM16.2578 2.79008H17.7422C18.3326 2.79008 18.8993 3.02945 19.3167 3.45545C19.7341 3.88146 19.9687 4.45964 19.9687 5.06204V8.84871H14.0312V5.06204C14.0312 4.45956 14.2658 3.88138 14.6833 3.45545C15.1008 3.02953 15.6675 2.79008 16.2578 2.79008ZM27.3906 45.2008C27.3906 46.0041 27.0779 46.7746 26.5212 47.3429C25.9643 47.9109 25.2091 48.2301 24.4219 48.2301H9.57815C8.79091 48.2301 8.03576 47.9109 7.47882 47.3429C6.92218 46.7746 6.6094 46.0041 6.6094 45.2008V22.7941L12.3296 16.9572C12.4687 16.8152 12.5469 16.6228 12.5469 16.422V11.1206C12.5469 10.7024 12.8793 10.3633 13.2891 10.3633H20.711C20.9078 10.3633 21.0967 10.4431 21.2358 10.5851C21.375 10.7271 21.4532 10.9198 21.4532 11.1206V16.422C21.4532 16.6228 21.5314 16.8155 21.6705 16.9575L27.3907 22.7941L27.3906 45.2008Z" fill="#7F3E41"/>
</svg>
