<svg width="1553" height="238" viewBox="0 0 1553 238" fill="none" xmlns="http://www.w3.org/2000/svg">
<path fill-rule="evenodd" clip-rule="evenodd" d="M1324.91 233.201V4.78711H1435.22C1455.78 4.78711 1474.02 8.13951 1489.67 15.1899C1505.51 22.2335 1518.06 32.5318 1526.93 46.1631C1535.86 59.684 1540.14 75.5083 1540.14 93.2321C1540.14 110.97 1535.85 126.805 1526.91 140.332L1526.87 140.394C1521 149.113 1513.55 156.411 1504.63 162.325L1552.99 233.201H1454.81L1419.25 180.479H1414.33V233.201H1324.91ZM1404.97 171.118H1424.22L1459.78 223.84H1535.27L1491.24 159.305C1494.09 157.854 1496.8 156.283 1499.35 154.592C1507.37 149.294 1513.95 142.82 1519.1 135.17C1526.89 123.388 1530.78 109.408 1530.78 93.2321C1530.78 77.0558 1526.89 63.0764 1519.1 51.2937C1511.31 39.3113 1500.23 30.1248 1485.85 23.7342C1471.67 17.3436 1454.79 14.1483 1435.22 14.1483H1334.27V223.84H1404.97V171.118ZM1404.97 68.6682V117.796H1430.73C1440.51 117.796 1447.7 115.599 1452.3 111.206C1457.09 106.812 1459.49 100.821 1459.49 93.2321C1459.49 85.6432 1457.09 79.652 1452.3 75.2585C1447.7 70.8649 1440.51 68.6682 1430.73 68.6682H1404.97ZM1414.33 108.435H1430.73C1439.37 108.435 1443.71 106.462 1445.83 104.441L1445.9 104.372L1445.97 104.305C1448.5 101.985 1450.12 98.6771 1450.12 93.2321C1450.12 87.787 1448.5 84.4791 1445.97 82.1591L1445.9 82.092L1445.83 82.0233C1443.71 80.002 1439.37 78.0294 1430.73 78.0294H1414.33V108.435Z" fill="#DADADA" fill-opacity="0.1"/>
<path fill-rule="evenodd" clip-rule="evenodd" d="M1172.26 92.0338H1260.93V142.959H1172.26V170.518H1277.1V223.84H1102.76V14.1483H1273.21V67.4699H1172.26V92.0338ZM1181.62 76.8312H1282.57V4.78711H1093.4V233.201H1286.46V161.157H1181.62V152.32H1270.29V82.6726H1181.62V76.8312Z" fill="#DADADA" fill-opacity="0.1"/>
<path fill-rule="evenodd" clip-rule="evenodd" d="M958.674 4.78711H1048.09V233.201H958.674V155.915H912.092V233.201H822.674V4.78711H912.092V79.0779H958.674V4.78711ZM968.035 88.4391H902.731V14.1483H832.035V223.84H902.731V146.554H968.035V223.84H1038.73V14.1483H968.035V88.4391Z" fill="#DADADA" fill-opacity="0.1"/>
<path fill-rule="evenodd" clip-rule="evenodd" d="M642.246 233.201V78.329H580.836V4.78711H793.074V78.329H731.664V233.201H642.246ZM722.303 68.9677H783.713V14.1483H590.197V68.9677H651.607V223.84H722.303V68.9677Z" fill="#DADADA" fill-opacity="0.1"/>
<path fill-rule="evenodd" clip-rule="evenodd" d="M384.494 229.331L384.455 229.316C369.015 223.526 355.474 215.319 343.942 204.658L343.872 204.594C332.385 193.757 323.38 181.057 316.889 166.561L316.842 166.454C310.501 151.807 307.385 135.95 307.385 119C307.385 101.87 310.495 85.9903 316.863 71.4985L316.889 71.4386C323.381 56.9399 332.395 44.3256 343.907 33.674C355.439 22.8037 368.991 14.4829 384.455 8.68414L384.494 8.66932C400.204 2.85896 417.091 0 435.072 0C453.237 0 470.142 2.85405 485.689 8.68415C501.153 14.4829 514.705 22.8037 526.237 33.674C537.752 44.3287 546.674 56.953 552.968 71.4676C559.544 85.9649 562.759 101.857 562.759 119C562.759 135.973 559.533 151.85 552.978 166.509C546.684 181.031 537.768 193.748 526.271 204.593L526.203 204.658C514.671 215.32 501.129 223.526 485.689 229.316C470.154 235.141 453.351 238 435.372 238C417.204 238 400.216 235.145 384.494 229.331ZM544.411 162.736C550.402 149.355 553.398 134.777 553.398 119C553.398 103.023 550.402 88.4449 544.411 75.2643C538.62 61.884 530.432 50.301 519.847 40.5154C509.263 30.5301 496.781 22.8414 482.402 17.4493C468.024 12.0573 452.247 9.36123 435.072 9.36123C418.097 9.36123 402.32 12.0573 387.742 17.4493C373.363 22.8414 360.881 30.5301 350.297 40.5154C339.712 50.301 331.424 61.884 325.433 75.2643C319.642 88.4449 316.746 103.023 316.746 119C316.746 134.777 319.642 149.355 325.433 162.736C331.424 176.116 339.712 187.799 350.297 197.784C360.881 207.57 373.363 215.159 387.742 220.551C402.32 225.943 418.197 228.639 435.372 228.639C452.347 228.639 468.024 225.943 482.402 220.551C496.781 215.159 509.263 207.57 519.847 197.784C530.432 187.799 538.62 176.116 544.411 162.736Z" fill="#DADADA" fill-opacity="0.1"/>
<path fill-rule="evenodd" clip-rule="evenodd" d="M0 233.201V4.78711H72.7188L135.737 107.642L196.955 4.78711H269.727L270.379 233.201H187.274L186.895 161.968L155.78 214.329H114.088L83.1278 164.377V233.201H0ZM73.7665 131.505L119.3 204.968H150.454L196.077 128.193L196.586 223.84H260.991L260.392 14.1483H202.278L135.853 125.751L67.4758 14.1483H9.36123V223.84H73.7665V131.505Z" fill="#DADADA" fill-opacity="0.1"/>
</svg>
