<svg width="1440" height="255" viewBox="0 0 1440 255" fill="none" xmlns="http://www.w3.org/2000/svg">
<g opacity="0.5">
<path fill-rule="evenodd" clip-rule="evenodd" d="M1325.35 249.121V5.11523H1443.19C1465.15 5.11523 1484.63 8.69647 1501.36 16.2282C1518.27 23.7525 1531.68 34.7537 1541.15 49.3156C1550.69 63.7594 1555.27 80.6637 1555.27 99.5973C1555.27 118.546 1550.69 135.462 1541.13 149.913L1541.09 149.979C1534.83 159.292 1526.86 167.089 1517.34 173.406L1569 249.121H1464.11L1426.12 192.799H1420.87V249.121H1325.35ZM1410.87 182.799H1431.44L1469.43 239.12H1550.07L1503.03 170.18C1506.08 168.63 1508.97 166.952 1511.7 165.145C1520.27 159.486 1527.3 152.57 1532.79 144.398C1541.11 131.811 1545.27 116.878 1545.27 99.5973C1545.27 82.317 1541.11 67.3833 1532.79 54.7963C1524.47 41.9961 1512.63 32.1825 1497.27 25.3557C1482.12 18.5289 1464.1 15.1155 1443.19 15.1155H1335.35V239.12H1410.87V182.799ZM1410.87 73.3568V125.838H1438.39C1448.84 125.838 1456.52 123.491 1461.43 118.798C1466.55 114.104 1469.11 107.704 1469.11 99.5973C1469.11 91.4905 1466.55 85.0903 1461.43 80.3969C1456.52 75.7035 1448.84 73.3568 1438.39 73.3568H1410.87ZM1420.87 115.838H1438.39C1447.62 115.838 1452.26 113.73 1454.52 111.571L1454.59 111.498L1454.67 111.426C1457.37 108.948 1459.11 105.414 1459.11 99.5973C1459.11 93.7806 1457.37 90.247 1454.67 87.7686L1454.59 87.6969L1454.52 87.6235C1452.26 85.4643 1447.62 83.357 1438.39 83.357H1420.87V115.838Z" fill="#DADADA"/>
<path fill-rule="evenodd" clip-rule="evenodd" d="M1162.28 98.3173H1257V152.719H1162.28V182.159H1274.28V239.12H1088.03V15.1155H1270.12V72.0767H1162.28V98.3173ZM1172.28 82.077H1280.12V5.11523H1078.03V249.121H1284.28V172.159H1172.28V162.719H1267V88.3171H1172.28V82.077Z" fill="#DADADA"/>
<path fill-rule="evenodd" clip-rule="evenodd" d="M934.111 5.11523H1029.63V249.121H934.111V166.559H884.35V249.121H788.828V5.11523H884.35V84.477H934.111V5.11523ZM944.112 94.4772H874.35V15.1155H798.828V239.12H874.35V156.559H944.112V239.12H1019.63V15.1155H944.112V94.4772Z" fill="#DADADA"/>
<path fill-rule="evenodd" clip-rule="evenodd" d="M596.084 249.121V83.677H530.482V5.11523H757.208V83.677H691.606V249.121H596.084ZM681.606 73.6768H747.207V15.1155H540.483V73.6768H606.084V239.12H681.606V73.6768Z" fill="#DADADA"/>
<path fill-rule="evenodd" clip-rule="evenodd" d="M320.74 244.984L320.698 244.969C304.205 238.784 289.739 230.017 277.419 218.628L277.345 218.559C265.074 206.982 255.454 193.416 248.521 177.931L248.469 177.816C241.697 162.169 238.367 145.23 238.367 127.123C238.367 108.823 241.69 91.8599 248.492 76.379L248.52 76.3149C255.456 60.8265 265.085 47.3512 277.382 35.9726C289.701 24.3602 304.179 15.4715 320.698 9.27691L320.74 9.26108C337.522 3.05411 355.562 0 374.77 0C394.175 0 412.235 3.04887 428.843 9.27692C445.362 15.4715 459.839 24.3602 472.158 35.9726C484.459 47.3546 493.99 60.8406 500.714 76.3459C507.738 91.8327 511.173 108.81 511.173 127.123C511.173 145.255 507.727 162.216 500.725 177.875C494.001 193.388 484.476 206.973 472.195 218.559L472.121 218.628C459.802 230.017 445.336 238.784 428.843 244.969C412.247 251.192 394.297 254.246 375.09 254.246C355.683 254.246 337.535 251.196 320.74 244.984ZM491.573 173.844C497.973 159.55 501.173 143.977 501.173 127.123C501.173 110.056 497.973 94.4821 491.573 80.4018C485.386 66.1081 476.639 53.7345 465.332 43.2809C454.025 32.614 440.692 24.4005 425.331 18.6404C409.971 12.8803 393.117 10.0002 374.77 10.0002C356.636 10.0002 339.783 12.8803 324.209 18.6404C308.849 24.4005 295.515 32.614 284.208 43.2809C272.901 53.7345 264.048 66.1081 257.648 80.4018C251.461 94.4821 248.367 110.056 248.367 127.123C248.367 143.977 251.461 159.55 257.648 173.844C264.048 188.137 272.901 200.618 284.208 211.285C295.515 221.738 308.849 229.845 324.209 235.605C339.783 241.365 356.743 244.245 375.09 244.245C393.224 244.245 409.971 241.365 425.331 235.605C440.692 229.845 454.025 221.738 465.332 211.285C476.639 200.618 485.386 188.137 491.573 173.844Z" fill="#DADADA"/>
<path fill-rule="evenodd" clip-rule="evenodd" d="M-90 249.121V5.11523H-12.3175L55.0026 114.991L120.399 5.11523H198.138L198.835 249.121H110.058L109.653 173.026L76.4136 228.96H31.8758L-1.19803 175.599V249.121H-90ZM-11.1982 140.482L37.4428 218.96H70.7236L119.461 136.945L120.005 239.12H188.806L188.166 15.1155H126.085L55.1267 134.335L-17.9184 15.1155H-79.9998V239.12H-11.1982V140.482Z" fill="#DADADA"/>
</g>
</svg>
