<svg width="1440" height="238" viewBox="0 0 1440 238" fill="none" xmlns="http://www.w3.org/2000/svg">
<g opacity="0.5">
<path fill-rule="evenodd" clip-rule="evenodd" d="M1284.91 233.201V4.78711H1395.22C1415.78 4.78711 1434.02 8.13951 1449.67 15.1899C1465.51 22.2335 1478.06 32.5318 1486.93 46.1631C1495.86 59.684 1500.14 75.5083 1500.14 93.2321C1500.14 110.97 1495.85 126.805 1486.91 140.332L1486.87 140.394C1481 149.113 1473.55 156.411 1464.63 162.325L1512.99 233.201H1414.81L1379.25 180.479H1374.33V233.201H1284.91ZM1364.97 171.118H1384.22L1419.78 223.84H1495.27L1451.24 159.305C1454.09 157.854 1456.8 156.283 1459.35 154.592C1467.37 149.294 1473.95 142.82 1479.1 135.17C1486.89 123.388 1490.78 109.408 1490.78 93.2321C1490.78 77.0558 1486.89 63.0764 1479.1 51.2937C1471.31 39.3113 1460.23 30.1248 1445.85 23.7342C1431.67 17.3436 1414.79 14.1483 1395.22 14.1483H1294.27V223.84H1364.97V171.118ZM1364.97 68.6682V117.796H1390.73C1400.51 117.796 1407.7 115.599 1412.3 111.206C1417.09 106.812 1419.49 100.821 1419.49 93.2321C1419.49 85.6432 1417.09 79.652 1412.3 75.2585C1407.7 70.8649 1400.51 68.6682 1390.73 68.6682H1364.97ZM1374.33 108.435H1390.73C1399.37 108.435 1403.71 106.462 1405.83 104.441L1405.9 104.372L1405.97 104.305C1408.5 101.985 1410.12 98.6771 1410.12 93.2321C1410.12 87.787 1408.5 84.4791 1405.97 82.1591L1405.9 82.092L1405.83 82.0233C1403.71 80.002 1399.37 78.0294 1390.73 78.0294H1374.33V108.435Z" fill="#DADADA" fill-opacity="0.1"/>
<path fill-rule="evenodd" clip-rule="evenodd" d="M1132.26 92.0338H1220.93V142.959H1132.26V170.518H1237.1V223.84H1062.76V14.1483H1233.21V67.4699H1132.26V92.0338ZM1141.62 76.8312H1242.57V4.78711H1053.4V233.201H1246.46V161.157H1141.62V152.32H1230.29V82.6726H1141.62V76.8312Z" fill="#DADADA" fill-opacity="0.1"/>
<path fill-rule="evenodd" clip-rule="evenodd" d="M918.674 4.78711H1008.09V233.201H918.674V155.915H872.092V233.201H782.674V4.78711H872.092V79.0779H918.674V4.78711ZM928.035 88.4391H862.731V14.1483H792.035V223.84H862.731V146.554H928.035V223.84H998.731V14.1483H928.035V88.4391Z" fill="#DADADA" fill-opacity="0.1"/>
<path fill-rule="evenodd" clip-rule="evenodd" d="M602.246 233.201V78.329H540.836V4.78711H753.074V78.329H691.664V233.201H602.246ZM682.303 68.9677H743.713V14.1483H550.197V68.9677H611.607V223.84H682.303V68.9677Z" fill="#DADADA" fill-opacity="0.1"/>
<path fill-rule="evenodd" clip-rule="evenodd" d="M344.494 229.331L344.455 229.316C329.015 223.526 315.474 215.319 303.942 204.658L303.872 204.594C292.385 193.757 283.38 181.057 276.889 166.561L276.842 166.454C270.501 151.807 267.385 135.95 267.385 119C267.385 101.87 270.495 85.9903 276.863 71.4985L276.889 71.4386C283.381 56.9399 292.395 44.3256 303.907 33.674C315.439 22.8037 328.991 14.4829 344.455 8.68414L344.494 8.66932C360.204 2.85896 377.091 0 395.072 0C413.237 0 430.142 2.85405 445.689 8.68415C461.153 14.4829 474.705 22.8037 486.237 33.674C497.752 44.3287 506.674 56.953 512.968 71.4676C519.544 85.9649 522.759 101.857 522.759 119C522.759 135.973 519.533 151.85 512.978 166.509C506.684 181.031 497.768 193.748 486.271 204.593L486.203 204.658C474.671 215.32 461.129 223.526 445.689 229.316C430.154 235.141 413.351 238 395.372 238C377.204 238 360.216 235.145 344.494 229.331ZM504.411 162.736C510.402 149.355 513.398 134.777 513.398 119C513.398 103.023 510.402 88.4449 504.411 75.2643C498.62 61.884 490.432 50.301 479.847 40.5154C469.263 30.5301 456.781 22.8414 442.402 17.4493C428.024 12.0573 412.247 9.36123 395.072 9.36123C378.097 9.36123 362.32 12.0573 347.742 17.4493C333.363 22.8414 320.881 30.5301 310.297 40.5154C299.712 50.301 291.424 61.884 285.433 75.2643C279.642 88.4449 276.746 103.023 276.746 119C276.746 134.777 279.642 149.355 285.433 162.736C291.424 176.116 299.712 187.799 310.297 197.784C320.881 207.57 333.363 215.159 347.742 220.551C362.32 225.943 378.197 228.639 395.372 228.639C412.347 228.639 428.024 225.943 442.402 220.551C456.781 215.159 469.263 207.57 479.847 197.784C490.432 187.799 498.62 176.116 504.411 162.736Z" fill="#DADADA" fill-opacity="0.1"/>
<path fill-rule="evenodd" clip-rule="evenodd" d="M-40 233.201V4.78711H32.7188L95.7374 107.642L156.955 4.78711H229.727L230.379 233.201H147.274L146.895 161.968L115.78 214.329H74.0882L43.1278 164.377V233.201H-40ZM33.7665 131.505L79.2996 204.968H110.454L156.077 128.193L156.586 223.84H220.991L220.392 14.1483H162.278L95.8535 125.751L27.4758 14.1483H-30.6388V223.84H33.7665V131.505Z" fill="#DADADA" fill-opacity="0.1"/>
<path d="M395.446 69.1445C420.163 69.1445 440.676 91.2785 440.676 119.197C440.676 147.116 420.163 169.25 395.446 169.25C370.729 169.25 350.217 147.116 350.217 119.197C350.217 91.2786 370.729 69.1446 395.446 69.1445Z" stroke="#DADADA" stroke-opacity="0.1" stroke-width="6"/>
</g>
</svg>
